<svg xmlns="http://www.w3.org/2000/svg" viewBox="0 0 2500 2500" xml:space="preserve"><path style="fill:#f5f5f5" d="M1486.949 1378.276h-106.593c-9.338 0-16.105-8.9-13.609-17.898l233.986-843.555a14.123 14.123 0 0 1 13.609-10.348h106.593c9.338 0 16.105 8.9 13.609 17.898l-233.986 843.555a14.123 14.123 0 0 1-13.609 10.348z"/><path d="M1486.948 1380.481h-106.593c-5.145 0-9.883-2.35-12.997-6.446-3.114-4.096-4.111-9.289-2.737-14.246l233.986-843.555c1.956-7.045 8.425-11.965 15.735-11.965h106.593c5.145 0 9.883 2.35 12.997 6.445 3.114 4.096 4.111 9.29 2.737 14.247l-233.986 843.555c-1.954 7.045-8.423 11.965-15.735 11.965zm127.393-871.801c-5.335 0-10.057 3.591-11.483 8.733l-233.986 843.554a11.829 11.829 0 0 0 1.996 10.399 11.827 11.827 0 0 0 9.487 4.705h106.593c5.337 0 10.06-3.591 11.483-8.732l233.986-843.555a11.831 11.831 0 0 0-1.996-10.4 11.829 11.829 0 0 0-9.487-4.704h-106.593z"/><path style="fill:#f5f5f5" d="M1318.985 1301.394h-49.82c-9.338 0-16.105-8.9-13.609-17.898l233.985-843.555a14.123 14.123 0 0 1 13.609-10.348h49.819c9.338 0 16.105 8.9 13.609 17.898l-233.986 843.555a14.119 14.119 0 0 1-13.607 10.348z"/><path d="M1318.985 1303.6h-49.818c-5.147 0-9.884-2.35-12.998-6.446-3.115-4.096-4.112-9.289-2.737-14.246l233.985-843.555c1.955-7.045 8.425-11.965 15.735-11.965h49.82c5.145 0 9.883 2.35 12.997 6.445 3.114 4.096 4.111 9.29 2.737 14.247l-233.986 843.555c-1.954 7.045-8.424 11.965-15.735 11.965zm184.165-871.801c-5.335 0-10.057 3.591-11.483 8.733l-233.985 843.554a11.823 11.823 0 0 0 1.996 10.399 11.827 11.827 0 0 0 9.488 4.705h49.818c5.337 0 10.06-3.591 11.483-8.732l233.986-843.555a11.831 11.831 0 0 0-1.996-10.4 11.826 11.826 0 0 0-9.487-4.704h-49.82z"/><path style="fill:#f5f5f5" d="M722.14 1301.96h-22.136c-9.319 0-16.084-8.868-13.621-17.856L887.32 550.893a14.123 14.123 0 0 1 13.621-10.39h22.136c9.319 0 16.084 8.868 13.621 17.856L735.761 1291.57a14.123 14.123 0 0 1-13.621 10.39z"/><path d="M722.141 1304.166h-22.136c-5.137 0-9.868-2.342-12.983-6.425-3.114-4.083-4.122-9.266-2.764-14.219l200.937-733.211c1.938-7.074 8.414-12.013 15.748-12.013h22.136c5.135 0 9.867 2.342 12.982 6.424 3.114 4.083 4.123 9.266 2.765 14.219l-200.937 733.211c-1.939 7.075-8.415 12.014-15.748 12.014zm178.8-761.457a11.947 11.947 0 0 0-11.494 8.768L688.51 1284.688a11.828 11.828 0 0 0 2.018 10.378 11.827 11.827 0 0 0 9.476 4.69h22.136a11.947 11.947 0 0 0 11.494-8.767l200.937-733.211a11.828 11.828 0 0 0-2.019-10.378 11.826 11.826 0 0 0-9.475-4.69h-22.136z"/><path style="fill:#f5f5f5" d="m642.771 599.388 776.787-2.358s78.433-4.083 127.105 49.819c0 0 45.152 28.338 42.182 47.576-2.994 19.264-20.302 46.675-129.179 51.103-79.604 3.251-436.848.193-623.063-1.685a1078.616 1078.616 0 0 1-224.107-25.851l-265.384-59.225-.361-32.024 78.345-13.701-91.175-272.852 55.853-.63a42.898 42.898 0 0 1 32.398 14.23l220.599 245.598z"/><circle style="fill:#f5f5f5" cx="1288.775" cy="644.657" r="17.963"/><path d="M1288.775 664.825c-11.121 0-20.169-9.047-20.169-20.168s9.048-20.168 20.169-20.168c11.119 0 20.167 9.047 20.167 20.168s-9.047 20.168-20.167 20.168zm0-35.925c-8.69 0-15.758 7.068-15.758 15.757s7.068 15.757 15.758 15.757c8.688 0 15.756-7.068 15.756-15.757s-7.068-15.757-15.756-15.757z"/><circle style="fill:#f5f5f5" cx="1194.618" cy="644.657" r="17.963"/><path d="M1194.618 664.825c-11.12 0-20.168-9.047-20.168-20.168s9.047-20.168 20.168-20.168c11.12 0 20.168 9.047 20.168 20.168s-9.048 20.168-20.168 20.168zm0-35.925c-8.689 0-15.757 7.068-15.757 15.757s7.068 15.757 15.757 15.757 15.757-7.068 15.757-15.757-7.068-15.757-15.757-15.757z"/><circle style="fill:#f5f5f5" cx="1100.461" cy="644.657" r="17.963"/><path d="M1100.461 664.825c-11.12 0-20.168-9.047-20.168-20.168s9.047-20.168 20.168-20.168c11.12 0 20.168 9.047 20.168 20.168s-9.048 20.168-20.168 20.168zm0-35.925c-8.689 0-15.757 7.068-15.757 15.757s7.068 15.757 15.757 15.757 15.757-7.068 15.757-15.757-7.068-15.757-15.757-15.757z"/><circle style="fill:#f5f5f5" cx="1006.304" cy="644.657" r="17.963"/><path d="M1006.304 664.825c-11.121 0-20.169-9.047-20.169-20.168s9.048-20.168 20.169-20.168c11.12 0 20.168 9.047 20.168 20.168s-9.047 20.168-20.168 20.168zm0-35.925c-8.689 0-15.758 7.068-15.758 15.757s7.069 15.757 15.758 15.757 15.757-7.068 15.757-15.757-7.068-15.757-15.757-15.757z"/><circle style="fill:#f5f5f5" cx="912.147" cy="644.657" r="17.963"/><path d="M912.147 664.825c-11.12 0-20.168-9.047-20.168-20.168s9.047-20.168 20.168-20.168c11.122 0 20.169 9.047 20.169 20.168s-9.048 20.168-20.169 20.168zm0-35.925c-8.689 0-15.757 7.068-15.757 15.757s7.068 15.757 15.757 15.757 15.758-7.068 15.758-15.757-7.069-15.757-15.758-15.757z"/><circle style="fill:#f5f5f5" cx="817.99" cy="644.657" r="17.963"/><circle style="fill:#f5f5f5" cx="723.833" cy="644.657" r="17.963"/><path d="M723.833 664.825c-11.12 0-20.168-9.047-20.168-20.168s9.047-20.168 20.168-20.168c11.12 0 20.168 9.047 20.168 20.168s-9.047 20.168-20.168 20.168zm0-35.925c-8.689 0-15.757 7.068-15.757 15.757s7.068 15.757 15.757 15.757 15.757-7.068 15.757-15.757-7.068-15.757-15.757-15.757z"/><path style="fill:#f5f5f5" d="m343.877 639.39.268 20.98 263.8 58.46a1105.58 1105.58 0 0 0 229.761 26.145c187.439 1.601 542.807 4.09 622.268.74 109.178-4.603 126.494-32.118 129.468-51.441.044-.31-.032-.672-.013-1.025-681.228 35.095-1118.857-30.915-1245.552-53.859z"/><path d="M1285.782 749.589c-138.311 0-322.458-1.335-448.095-2.409a1109.798 1109.798 0 0 1-230.219-26.198l-263.801-58.458a2.207 2.207 0 0 1-1.728-2.126l-.267-20.98a2.2 2.2 0 0 1 .781-1.711 2.215 2.215 0 0 1 1.818-.487c118.969 21.544 560.36 89.094 1245.043 53.826a2.168 2.168 0 0 1 1.676.645c.442.444.674 1.053.64 1.678.03.464.054.82-.006 1.223-4.977 32.365-48.009 49.803-131.556 53.326-28.897 1.218-93.841 1.671-174.286 1.671zm-939.455-90.993 262.095 58.08a1105.444 1105.444 0 0 0 229.302 26.094c198.67 1.697 543.676 4.051 622.157.743 115.033-4.85 124.976-35.571 127.115-47.93-678.801 34.747-1118.19-31.512-1240.88-53.547l.211 16.56z"/><path style="fill:#f5f5f5" d="m333.921 340.19 90.581 264.385s191.997-.337 222.791 0L425.328 357.306a53.334 53.334 0 0 0-40.282-17.692l-51.125.576z"/><path style="fill:#f5f5f5" d="M378.297 357.305a53.335 53.335 0 0 0-32.904-17.245l-11.472.131 90.557 264.315c36.701-.047 87.707-.098 126.056-.074 17.504-.007 34.598-.009 49.601.003l-221.838-247.13z"/><path d="M424.478 606.71a2.205 2.205 0 0 1-2.086-1.49l-90.557-264.315a2.208 2.208 0 0 1 2.061-2.921l11.473-.13c.097-.002.203.004.305.018a55.57 55.57 0 0 1 34.265 17.958v.001L601.775 602.96a2.204 2.204 0 0 1-1.642 3.678h-.002c-15-.012-32.094-.01-49.598-.003-38.348-.023-89.354.027-126.053.074l-.002.001zm-87.483-264.349 89.058 259.936c36.576-.047 86.676-.098 124.481-.072 15.605-.006 30.888-.01 44.654 0L376.656 358.778a51.146 51.146 0 0 0-31.393-16.512l-8.268.095z"/><path d="M1313.958 749.17c-140.767 0-342.653-1.762-477.378-3.121-75.396-.76-150.951-9.476-224.565-25.904L346.631 660.92a2.206 2.206 0 0 1-1.725-2.128l-.361-32.024a2.205 2.205 0 0 1 1.825-2.197l75.822-13.26-90.363-270.422a2.203 2.203 0 0 1 2.066-2.904l55.853-.63c12.966-.164 25.391 5.307 34.063 14.96l219.94 244.864 775.8-2.354c.605-.041 72.798-3.224 121.748 43.362 5.109 4.86 10.083 9.017 15.214 12.709 16.951 12.198 36.698 29.711 34.51 43.867-5.012 32.255-47.951 49.581-131.267 52.969-25.394 1.036-78.656 1.438-145.798 1.438zm-964.66-92.174 263.678 58.844c73.314 16.362 148.56 25.042 223.649 25.799 198.944 2.007 544.415 4.893 622.95 1.686 120.198-4.889 125.386-38.269 127.089-49.238 1.419-9.184-10.51-23.622-32.727-39.612-5.296-3.81-10.424-8.092-15.679-13.093-47.548-45.253-117.891-42.19-118.587-42.149l-776.895 2.361h-.008a2.208 2.208 0 0 1-1.64-.731l-220.6-245.6c-7.823-8.709-19.049-13.641-30.732-13.497l-52.827.595 90.215 269.982a2.206 2.206 0 0 1-1.711 2.87l-76.498 13.378.323 28.405z"/><path d="m1446.418 656.534 109.525-1.235c-13.307-14.729-28.373-25.928-43.824-34.69l-66.097.745c-6.471.073-11.657 5.378-11.584 11.848l.132 11.747c.073 6.472 5.378 11.658 11.848 11.585z"/><path style="fill:#f5f5f5" d="M749.368 631.414c-6.86-3.338-6.258-5.395 1.317-4.547l471.497 52.453c7.562.855 15.038 7.622 16.649 15.062l2.035 9.423c1.602 7.441-3.313 13.735-10.93 13.981l-270.538 8.874c-7.604.233-19.438-2.284-26.264-5.628l-183.766-89.618z"/><path d="M958.409 728.88c-7.963 0-19.466-2.547-26.247-5.868L748.4 633.395c-3.368-1.64-6.704-3.687-5.906-6.44.798-2.753 4.712-2.698 8.435-2.281l471.495 52.453c8.439.954 16.763 8.484 18.561 16.787l2.034 9.424c.914 4.25.053 8.338-2.425 11.51-2.48 3.173-6.24 4.999-10.589 5.14l-270.537 8.874c-.345.013-.698.018-1.059.018zm-209.014-99.923a31.022 31.022 0 0 0 .94.474L934.1 719.05c6.438 3.154 17.986 5.628 25.229 5.406l270.533-8.874c3.02-.098 5.596-1.322 7.257-3.447 1.659-2.123 2.224-4.917 1.589-7.865l-2.034-9.422c-1.403-6.483-8.154-12.59-14.741-13.335L750.44 629.06a30.256 30.256 0 0 0-1.045-.103z"/><path style="fill:#f5f5f5" d="m495.692 603.128-132.133 1.49.085 7.519s28.968 30.512 181.567 23.73l-12.348-15.258a47.13 47.13 0 0 0-37.171-17.481z"/><path style="fill:#f5f5f5" d="M370.564 604.538c19.709 8.367 65.162 19.957 162.363 16.149l-.063-.079a47.138 47.138 0 0 0-37.172-17.48l-125.128 1.41z"/><path d="M496.877 623.627c-74.718 0-111.256-10.301-127.174-17.059a2.204 2.204 0 0 1 .837-4.235l125.127-1.411c15.149-.215 29.363 6.499 38.911 18.298.524.648.671 1.577.326 2.337-.345.76-1.057 1.3-1.891 1.332-12.936.507-24.965.738-36.136.738zm-114.108-17.022c22.616 7.012 66.193 14.789 145.387 12.05-8.57-8.672-20.055-13.461-32.439-13.323l-112.948 1.273z"/><path d="M502.835 639.06c-115.213.002-139.702-24.259-140.791-25.406a2.206 2.206 0 0 1-.606-1.494l-.084-7.518a2.206 2.206 0 0 1 2.181-2.23l132.132-1.49.025 2.205-.025-2.205c15.128-.207 29.361 6.499 38.911 18.298l12.348 15.259a2.204 2.204 0 0 1-1.616 3.591c-15.368.682-29.503.99-42.475.99zm-136.997-27.929c4.805 3.875 40.537 28.138 174.904 22.717l-9.592-11.854c-8.698-10.745-21.654-16.83-35.433-16.662l-129.927 1.465.048 4.334z"/><path style="fill:#f5f5f5" d="m1116.906 696.745 66.359-.748c5.947-.067 10.821 4.699 10.888 10.645l.758 67.212c.067 5.947-4.699 10.823-10.645 10.89l-66.359.748c-31.377.354-105.076-18.788-105.351-43.183-.276-24.43 72.973-45.211 104.35-45.564z"/><path style="fill:#f5f5f5" d="m1116.906 696.745 66.359-.748c5.947-.067 10.821 4.699 10.888 10.645l.758 67.212c.067 5.947-4.699 10.823-10.645 10.89l-66.359.748c-31.377.354-105.076-18.788-105.351-43.183-.276-24.43 72.973-45.211 104.35-45.564z"/><path d="M1117.023 787.703c-16.797 0-42.992-5.063-64.18-12.44-19.291-6.714-42.324-17.879-42.493-32.929-.304-26.913 74.598-47.434 106.531-47.795l66.358-.748c7.151-.096 13.037 5.673 13.119 12.826l.757 67.212a12.885 12.885 0 0 1-3.696 9.216 12.885 12.885 0 0 1-9.129 3.904l-66.359.748c-.299.004-.604.006-.908.006zm-.093-88.753c-32.065.362-102.415 21.549-102.169 43.335.108 9.604 14.517 20.106 39.531 28.814 21.146 7.361 47.297 12.403 63.589 12.189l66.359-.748a8.5 8.5 0 0 0 6.025-2.577 8.507 8.507 0 0 0 2.439-6.083l-.757-67.212c-.054-4.687-3.885-8.466-8.561-8.466l-.098.001-66.358.747z"/><path style="fill:#f5f5f5" d="m1194.827 766.543-.089-7.878-.01-.839-88.334.995c-21.38.241-59.849-11.193-87.649-29.107-3.954 4.02-6.24 8.25-6.192 12.595.275 24.394 73.974 43.537 105.351 43.183l64.794-.731c6.813-.077 12.242-8.234 12.129-18.218z"/><path d="M1117.021 787.703c-16.797 0-42.991-5.063-64.179-12.438-19.291-6.715-42.324-17.88-42.493-32.931-.054-4.741 2.242-9.508 6.825-14.167a2.206 2.206 0 0 1 2.766-.308c28.382 18.29 66.259 29.031 86.429 28.756l88.333-.995h.025c1.207 0 2.191.97 2.205 2.18l.099 8.719c.127 11.375-6.157 20.356-14.309 20.448l-64.793.731c-.297.003-.602.005-.908.005zm-97.909-55.144c-2.925 3.339-4.387 6.604-4.351 9.726.108 9.604 14.517 20.106 39.531 28.814 21.143 7.361 47.278 12.353 63.59 12.189l64.793-.731c5.489-.061 10.045-7.383 9.948-15.988l-.073-6.513-86.129.97c-20.456.217-58.411-10.334-87.309-28.467z"/><circle cx="992.954" cy="760.849" r="16.968"/><path d="M927.386 760.849c0-9.371 7.597-16.968 16.968-16.968 9.371 0 16.968 7.597 16.968 16.968 0 9.371-7.597 16.968-16.968 16.968-9.371 0-16.968-7.597-16.968-16.968z"/><circle cx="1473.397" cy="760.849" r="16.968"/><path d="M1263.079 335.991a1005.694 1005.694 0 0 0-43.152-.991v1403.469h43.152V335.991zM1667.276 441.869a1083.146 1083.146 0 0 0-43.152-19.947V1738.47h43.152V441.869z"/><path d="M863.5 1234.517h1300.356v-43.151H465.171a1714.009 1714.009 0 0 1-7.273 43.151H863.5zM454.685 1251.778c-13.052 68.234-28.175 126.926-43.152 178.633v308.059h43.152v-486.692z"/><path d="M858.883 396.687a914.993 914.993 0 0 0-43.153 16.788V1738.47h43.153V396.687zM2048.243 1589.484c15.325-26.471 29.852-54.24 43.152-83.219V847.826c-12.978-26.555-27.429-52.118-43.152-76.711v818.369z"/><path d="M2048.244 1236.723h-357.655a2.205 2.205 0 1 1 0-4.41h357.655a2.204 2.204 0 1 1 0 4.41z"/><path d="M2048.244 1591.689a2.205 2.205 0 0 1-2.205-2.205v-354.966a2.204 2.204 0 1 1 4.41 0v354.966a2.205 2.205 0 0 1-2.205 2.205zM1624.123 1740.675a2.205 2.205 0 0 1-2.205-2.205v-485.967a2.204 2.204 0 1 1 4.41 0v485.967a2.204 2.204 0 0 1-2.205 2.205z"/><path d="M1945.069 1740.7h-764.058a2.205 2.205 0 1 1 0-4.41h764.058a2.204 2.204 0 1 1 0 4.41zM875.976 1740.7H336.982a2.205 2.205 0 1 1 0-4.41h538.994a2.205 2.205 0 1 1 0 4.41z"/><path style="fill:#f5f5f5" d="m1004.824 2029.264-6.815 72.343c-.231 2.037 1.135 3.903 2.937 4.015l35.921 2.222c1.549.096 2.883-1.151 3.101-2.898l6.676-65.747-41.82-9.935z"/><path d="M1037.038 2110.054a4.51 4.51 0 0 1-.306-.01l-35.922-2.223c-1.4-.086-2.692-.755-3.64-1.882-1.048-1.249-1.542-2.919-1.354-4.581l6.811-72.301a2.207 2.207 0 0 1 2.705-1.939l41.82 9.934a2.207 2.207 0 0 1 1.685 2.369l-6.675 65.747c-.355 2.856-2.529 4.886-5.124 4.886zm-30.257-78.058-6.577 69.817c-.056.501.074.968.346 1.29.094.112.286.302.532.317l35.921 2.223c.387.024.706-.402.778-.97l6.474-63.775-37.474-8.902z"/><path style="fill:#f5f5f5" d="M992.345 2082.877c-2.385 8.545-7.414 32.626-9.518 47.113-1.32 9.089 4.424 17.691 13.215 20.068 24.855 6.723 84.271 6.433 133.736 8.617 3.386.15 9.632-1.504 12.407-9.712 9.413-27.838-42.578-36.46-93.968-64.762a2.981 2.981 0 0 0-3.178.165c-.591.421-1.344.937-2.23 1.501-8.94 5.688-23.799 5.696-32.877.237l-10.253-6.166c-2.811-1.69-6.447-.24-7.334 2.939z"/><path d="M1130.207 2160.891c-.178 0-.353-.004-.527-.012-12.657-.559-26.15-.96-39.198-1.349-39.228-1.169-76.279-2.274-95.018-7.342-9.924-2.686-16.296-12.365-14.821-22.514 2.095-14.428 7.102-38.518 9.577-47.389a7.134 7.134 0 0 1 4.264-4.755 7.1 7.1 0 0 1 6.331.52l10.252 6.166c8.423 5.065 22.416 4.969 30.557-.208a50.53 50.53 0 0 0 2.134-1.437c1.628-1.164 3.745-1.28 5.521-.302 15.496 8.534 31.174 15.323 45.007 21.314 33.204 14.379 57.195 24.768 49.986 46.087-2.81 8.316-9.208 11.221-14.065 11.221zm-133.079-79.458a2.757 2.757 0 0 0-2.657 2.038c-2.42 8.667-7.443 32.938-9.461 46.837-1.154 7.944 3.837 15.52 11.608 17.623 18.237 4.933 55.037 6.029 93.997 7.19 13.064.39 26.572.792 39.26 1.353 1.247.048 7.474-.088 10.221-8.215 5.907-17.472-16.521-27.185-47.561-40.626-13.922-6.031-29.703-12.864-45.381-21.498a.78.78 0 0 0-.835.029c-.617.44-1.402.978-2.326 1.567-9.55 6.074-25.34 6.194-35.198.266l-10.253-6.166a2.722 2.722 0 0 0-1.414-.398zm-4.782 1.445h.021-.021z"/><path style="fill:#f5f5f5" d="M981.329 2136.551a15.92 15.92 0 0 0-.094.507c-1.32 9.089 7.312 14.675 15.564 18.549 24.488 11.494 123.382 4.907 127.2 4.648.078-.005.133-.007.211-.006 1.231.019 13.784.019 17.403-7.787.45-.97.726-2.331.896-3.61.277-2.088.133-4.209-.326-6.264-.375-1.676-2.025-2.721-3.675-2.299-18.357 4.695-61.216 6.252-104.046 1.534-28.473-3.136-40.843-9.344-47.443-13.292-1.8-1.076-4.101-.032-4.51 2.039-.344 1.73-.759 3.835-1.18 5.981z"/><path d="M1062.014 2164.552c-26.75 0-54.51-1.485-66.152-6.95-7.973-3.743-18.39-9.977-16.809-20.862.011-.081.051-.302.113-.617l1.178-5.983a5.276 5.276 0 0 1 3.019-3.795 5.212 5.212 0 0 1 4.786.291c6.921 4.139 19.275 9.99 46.553 12.993 44.248 4.876 86.229 2.877 103.259-1.478a5.128 5.128 0 0 1 3.986.602 5.234 5.234 0 0 1 2.386 3.351c.539 2.412.66 4.779.361 7.036-.24 1.809-.594 3.198-1.081 4.248-4.193 9.043-17.91 9.087-19.438 9.065-2.259.153-31.547 2.099-62.161 2.099zm-76.533-34.245a.835.835 0 0 0-.81.69l-1.177 5.979-.001.003-.074.391c-.895 6.165 3.521 11.172 14.318 16.24 23.943 11.239 121.951 4.726 126.114 4.444.06-.005.323-.014.391-.011.527.03 12.297.122 15.372-6.509.165-.356.477-1.215.711-2.973.23-1.741.132-3.589-.293-5.493a.856.856 0 0 0-.388-.553.738.738 0 0 0-.588-.089c-17.409 4.451-60.065 6.521-104.834 1.591-28.135-3.099-41.059-9.241-48.333-13.592a.782.782 0 0 0-.408-.118zm-4.151 6.244h.022-.022zM1051.743 2108.903a2.205 2.205 0 0 1-1.338-3.96l15.001-11.424a2.202 2.202 0 0 1 3.09.418 2.205 2.205 0 0 1-.418 3.091l-15.001 11.424a2.196 2.196 0 0 1-1.334.451zM1071.675 2117.073a2.205 2.205 0 0 1-1.326-3.969l13.124-9.85a2.205 2.205 0 0 1 2.647 3.527l-13.124 9.85a2.191 2.191 0 0 1-1.321.442zM1099.999 1398.216l-79.065-5.817c4.038-26.344 2.274-21.825 2.274-21.825l-125.155-10.397s-28.506 57.045-38.095 117.141c-8.927 55.952-41.754 286.318-121.749 471.099-9.069 20.948 1.402 42.749 23.706 47.605 8.923 1.943 12.662-1.235 20.39-4.992 3.98-1.936 10.582-7.656 10.582-7.656s111.983-93.604 177.392-332.713c19.422 120.486 29.488 322.283 20.621 391.008-.709 5.495 3.103 10.518 8.589 11.288 13.753 1.933 38.553 4.556 55.516 1.384 3.121-.583 5.626-2.874 6.404-5.952 11.2-44.316 104.075-444.896 38.59-650.173z"/><path style="fill:#f5f5f5" d="M1035.908 2058.019c-13.584 0-27.741-1.616-36.726-2.879-6.63-.93-11.327-7.101-10.469-13.754 8.714-67.542-1.229-262.406-19.044-380.322-65.206 229.869-174.259 323.074-175.369 324.001-.248.216-6.839 5.91-11.032 7.948-1.216.591-2.331 1.168-3.384 1.712-5.679 2.935-10.162 5.253-18.438 3.451-11.188-2.436-20.024-8.988-24.877-18.45-4.934-9.62-5.074-21.351-.383-32.185 75.263-173.85 108.786-388.597 119.803-459.164.68-4.356 1.275-8.172 1.792-11.406 9.532-59.739 38.013-117.205 38.299-117.778a2.202 2.202 0 0 1 2.156-1.213l124.218 10.319a2.298 2.298 0 0 1 1.558-.148c2.203.591 2.721.73-.539 22.224l76.687 5.643a2.204 2.204 0 0 1 1.939 1.529c69.539 217.984-37.464 647.073-38.553 651.382-.976 3.863-4.169 6.838-8.138 7.58-5.845 1.093-12.599 1.51-19.5 1.51zm-65.63-409.564.12.003a2.205 2.205 0 0 1 2.059 1.851c19.208 119.163 29.813 320.473 20.631 391.641-.55 4.269 2.459 8.226 6.709 8.823 13.284 1.867 38.065 4.533 54.804 1.401 2.316-.434 4.106-2.091 4.67-4.325 1.084-4.288 107.317-430.298 39.077-647.542l-77.575-5.708a2.207 2.207 0 0 1-2.018-2.533c1.812-11.829 2.402-17.095 2.574-19.435L899.375 1362.5c-4.297 8.933-28.619 61.14-37.24 115.165-.515 3.229-1.11 7.04-1.789 11.391-11.039 70.705-44.628 285.87-120.115 460.237-4.164 9.618-4.069 19.977.261 28.418 4.24 8.268 12.015 14.004 21.892 16.155 6.721 1.464 10.017-.239 15.475-3.06a159.99 159.99 0 0 1 3.481-1.761c3.671-1.785 10.038-7.284 10.102-7.34 1.144-.957 112.268-96.056 176.71-331.627a2.205 2.205 0 0 1 2.126-1.623z"/><path style="fill:#f5f5f5" d="M969.596 1667.623a2.206 2.206 0 0 1-2.199-2.074c-.024-.383-2.509-38.838-20.814-81.655-5.674-13.272-9.767-29.067-12.166-46.948a2.206 2.206 0 0 1 1.893-2.479 2.21 2.21 0 0 1 2.479 1.893c2.345 17.485 6.333 32.894 11.849 45.8 18.621 43.557 21.138 82.736 21.161 83.126a2.205 2.205 0 0 1-2.203 2.337zM1013.144 1554.871a29.158 29.158 0 0 1-17.091-5.516l-19.257-13.931a26.304 26.304 0 0 1-10.897-19.987l-3.295-61.3a9.192 9.192 0 0 1 2.989-7.309 9.22 9.22 0 0 1 7.565-2.323c16.628 2.411 49.8 5.897 85.139 2.147a9.337 9.337 0 0 1 7.056 2.223 9.245 9.245 0 0 1 3.157 6.653l1.867 58.537a26.318 26.318 0 0 1-15.609 24.954l-29.745 13.319a29.04 29.04 0 0 1-11.879 2.533zm-41.322-106.05a4.817 4.817 0 0 0-3.254 1.264 4.801 4.801 0 0 0-1.56 3.816l3.295 61.299a21.918 21.918 0 0 0 9.078 16.651l19.257 13.931c7.132 5.158 16.552 6.127 24.584 2.532l29.745-13.319a21.927 21.927 0 0 0 13.003-20.788l-1.867-58.537a4.749 4.749 0 0 0-1.647-3.467 4.782 4.782 0 0 0-3.693-1.162c-35.816 3.799-69.405.272-86.238-2.169a4.77 4.77 0 0 0-.703-.051zM863.006 1541.036a9.41 9.41 0 0 1-5.44-1.736l-12.232-8.665a2.204 2.204 0 0 1-.524-3.074 2.203 2.203 0 0 1 3.074-.524l12.231 8.664a4.998 4.998 0 0 0 5.162.377l32.755-16.647a4.989 4.989 0 0 0 2.71-3.924l7.387-68.192a5 5 0 0 0-4.212-5.487l-39.889-6.18a2.205 2.205 0 0 1-1.841-2.518 2.214 2.214 0 0 1 2.518-1.841l39.889 6.18a9.405 9.405 0 0 1 7.92 10.32l-7.387 68.193a9.385 9.385 0 0 1-5.098 7.381l-32.754 16.647a9.41 9.41 0 0 1-4.269 1.026zM761.75 2031.1c4.367-21.835 6.261-26.321 16.742-43.153 7.789-12.51-11.138-31.374-20.778-32.819-16.077-3.309-13.506 1.783-31.895 25.35l-14.397 17.709s46.512 51.994 50.328 32.913z"/><path d="M757.399 2037.489c-13.088 0-41.768-31.289-47.621-37.832a2.204 2.204 0 0 1-.062-2.869l13.671-16.674c5.035-6.453 8.217-11.596 11.041-16.308a2.21 2.21 0 0 1 3.026-.758 2.207 2.207 0 0 1 .758 3.026c-2.896 4.828-6.158 10.103-11.38 16.795l-12.503 15.249c14.566 16.04 36.969 36.728 43.684 34.891.32-.087 1.169-.319 1.574-2.343 3.92-19.596 5.281-25.283 13.431-38.893a2.205 2.205 0 1 1 3.784 2.266c-7.798 13.022-9.011 18.097-12.891 37.493-.776 3.882-3.005 5.26-4.739 5.733a6.744 6.744 0 0 1-1.773.224z"/><path style="fill:#f5f5f5" d="m764.29 2022.906-18.616-28.085c-8.685-13.103-27.156-15.055-38.388-4.057l-21.308 17.877s-4.073 12.294-2.778 20.226c1.687 10.331 5.006 25.055 11.434 39.643 9.891 22.448 37.264 67.552 47.008 83.4 2.042 3.32 7.151 6.608 10.709 5.016 4.225-1.891 8.601-5.294 12.832-9.262 6.545-6.138 4.35-34.841 2.004-54.822-1.504-12.81-.385-45.503.166-58.979a18.448 18.448 0 0 0-3.063-10.957z"/><path d="M750.308 2159.553c-4.25 0-8.644-3.397-10.544-6.487-10.91-17.746-37.348-61.422-47.148-83.666-6.606-14.995-9.951-30.125-11.592-40.177-1.367-8.37 2.688-20.751 2.861-21.275a2.2 2.2 0 0 1 .676-.996l21.308-17.878c5.7-5.59 13.698-8.367 21.797-7.513a27.157 27.157 0 0 1 19.846 12.042l18.616 28.084v.001a20.544 20.544 0 0 1 3.427 12.264c-.548 13.417-1.665 45.987-.18 58.633 5.73 48.794-.604 54.735-2.686 56.688-5.013 4.701-9.408 7.863-13.439 9.667a7.138 7.138 0 0 1-2.942.613zm-62.419-149.636c-.757 2.47-3.551 12.231-2.512 18.595 1.601 9.799 4.857 24.54 11.275 39.109 9.692 21.996 36.006 65.466 46.87 83.134 1.638 2.663 5.7 5.153 7.929 4.159 3.575-1.6 7.573-4.498 12.223-8.859 2.043-1.916 6.26-10.909 1.322-52.955-1.522-12.959-.399-45.806.154-59.328a16.17 16.17 0 0 0-2.698-9.648l-18.616-28.084a22.762 22.762 0 0 0-16.633-10.093 22.777 22.777 0 0 0-18.374 6.392l-20.94 17.578z"/><path d="M766.516 2057.136c-.193 0-.39-.026-.586-.08l-20.038-5.506a2.206 2.206 0 0 1-1.542-2.711 2.197 2.197 0 0 1 2.711-1.542l20.038 5.506a2.207 2.207 0 0 1-.583 4.333zM765.029 2075.021c-.193 0-.39-.026-.586-.08l-20.038-5.507a2.206 2.206 0 0 1 1.169-4.253l20.038 5.507a2.206 2.206 0 0 1-.583 4.333z"/><path style="fill:#f5f5f5" d="M744.586 2158.398c2.04 0 3.982-.326 5.749-.934 5.981-2.06 20.947-6.517 19.278-27.975-1.73-22.239-18.646-33.565-30.994-48.16-9.422-11.137-8.475-57.701-11.44-66.828-4.117-12.673-18.064-19.434-30.32-14.703-3.551 1.371-8.182 5.934-10.88 8.844-7.583 8.177-8.479 25.937-7.741 38.999 1.382 24.457 15.76 73.138 33.933 96.648 8.865 11.468 22.537 14.109 32.415 14.109z"/><path d="M744.586 2160.603c-8.437 0-24.094-1.944-34.159-14.965-19.007-24.591-33.064-74.392-34.391-97.873-.63-11.141-.385-31.231 8.325-40.624 3.22-3.471 7.863-7.919 11.704-9.402 6.436-2.483 13.469-2.195 19.796.817 6.357 3.025 11.245 8.588 13.414 15.262 1.091 3.358 1.638 10.684 2.331 19.96 1.242 16.595 2.941 39.324 8.695 46.126 2.804 3.313 5.925 6.536 8.942 9.653 10.411 10.749 21.175 21.864 22.567 39.761 1.754 22.548-13.651 27.805-20.228 30.049l-.53.181c-2.032.7-4.208 1.055-6.466 1.055zm-39.597-160.123c-2.481 0-4.959.457-7.336 1.375-2.348.906-6.014 3.926-10.057 8.286-5.552 5.986-8.16 19.609-7.155 37.375 1.294 22.925 14.98 71.496 33.475 95.425 8.914 11.53 23.042 13.251 30.67 13.251a15.46 15.46 0 0 0 5.031-.814l.542-.186c6.084-2.075 18.744-6.395 17.255-25.532-1.269-16.312-11.017-26.378-21.337-37.035-3.069-3.168-6.241-6.445-9.14-9.871-6.681-7.894-8.37-30.49-9.727-48.647-.645-8.624-1.202-16.073-2.129-18.925-1.796-5.529-5.846-10.136-11.114-12.643-2.879-1.37-5.932-2.059-8.978-2.059z"/><path d="M744.586 2160.603c-2.421 0-4.833-.153-7.171-.456a2.205 2.205 0 0 1-1.905-2.469 2.198 2.198 0 0 1 2.469-1.905c2.151.278 4.374.419 6.606.419 4.162 0 7.888-1.537 10.221-4.215 1.989-2.283 2.804-5.191 2.358-8.412-2.982-21.555-14.455-32.56-27.74-45.302-11.504-11.035-14.206-45.738-15.657-64.382-.367-4.718-.685-8.791-.984-9.886-1.249-4.571-7.909-10.051-15.831-10.923-4.602-.507-10.927.469-14.901 7.99a2.206 2.206 0 0 1-3.901-2.061c3.949-7.469 10.978-11.223 19.285-10.313 8.945.984 17.74 7.329 19.603 14.144.393 1.435.643 4.488 1.128 10.707 1.305 16.771 4.023 51.672 14.313 61.542 13.3 12.758 25.863 24.808 29.056 47.88.616 4.457-.592 8.689-3.402 11.914-3.172 3.64-8.109 5.728-13.547 5.728z"/><path style="fill:#f5f5f5" d="m966.082 1055.883 11.823-64.888 52.866 13.6-7.296 45.176z"/><path d="M966.082 1058.089a2.207 2.207 0 0 1-2.169-2.6l11.824-64.888a2.204 2.204 0 0 1 2.719-1.74l52.866 13.6a2.204 2.204 0 0 1 1.628 2.487l-7.297 45.176a2.203 2.203 0 0 1-1.944 1.84l-57.393 6.112a2.326 2.326 0 0 1-.234.013zm13.568-64.368-10.87 59.657 52.786-5.622 6.706-41.527-48.622-12.508z"/><path d="M1021.468 903.614c-18.896 2.563-21.467 23.894-44.048 26.401-10.347 1.149-15.544-2.693-24.712 1.711-6.071 2.916-14.905 9.938-15.808 19.231-1.15 11.836 11.826 14.39 25.081 37.17 9.309 15.998 9.876 26.71 17.279 27.868 7.486 1.17 10.833-9.166 19.107-8.503 10.707.859 12.106 18.733 23.405 24.063 7.122 3.359 22.04 2.66 43.095-13.112a8.837 8.837 0 0 0 2.62-11.004c-2.434-4.891-5.542-11.052-9.006-16.691-16.508-26.873-28.161-31.409-25.863-39.649 3.521-12.626 26.692-10.287 28.476-20.442 1.853-10.548-20.223-29.676-39.626-27.043z"/><path style="fill:#f5f5f5" d="m990.789 958.493 5.026-2.615s16.299 34.022 22.676 42.737c6.377 8.716 34.865-8.989 34.865-8.989l.699-6.284 3.407-2.219a4.168 4.168 0 0 0 .657-6.458c-6.874-6.813-21.46-22.276-28.549-37.324 0-.001-23.979-1.42-38.781 21.152z"/><path d="M1024.529 1003.21c-3.303 0-6.086-.927-7.818-3.292-5.58-7.628-18.231-33.466-21.895-41.035l-3.009 1.566a2.205 2.205 0 0 1-2.862-3.166c15.33-23.376 39.719-22.219 40.756-22.145a2.205 2.205 0 0 1 1.865 1.261c7.051 14.97 22.004 30.651 28.106 36.698a6.35 6.35 0 0 1 1.855 5.177 6.34 6.34 0 0 1-2.861 4.695l-2.534 1.651-.585 5.249a2.2 2.2 0 0 1-1.027 1.629c-3.836 2.386-19.52 11.712-29.991 11.712zm-27.536-49.197c.348.22.63.535.811.912.163.338 16.283 33.936 22.467 42.388 3.471 4.745 19.898-2.26 31.013-9.003l.58-5.212a2.199 2.199 0 0 1 .988-1.604l3.407-2.219c.5-.325.822-.853.881-1.445a1.958 1.958 0 0 0-.573-1.599c-7.571-7.502-21.132-22.075-28.389-36.707-4.436.06-19.378 1.296-31.185 14.489z"/><path style="fill:#f5f5f5" d="M1001.514 983.378s-13.107-16.04-19.145-8.533c-6.038 7.508 8.836 24.803 19.145 8.533z"/><circle transform="rotate(-76.714 561.766 2139.075)" cx="561.664" cy="2138.935" r="25.087"/><circle transform="rotate(-76.714 441.64 2139.079)" cx="441.547" cy="2138.935" r="25.087"/><path style="fill:#f5f5f5" d="m546.295 1789.873 97.559-229.603a26.462 26.462 0 0 1 24.353-16.113h51.39c18.961 0 31.768 19.357 24.353 36.809l-88.767 208.907h26.142l88.307-207.977c13.535-31.876-9.86-64.768-44.49-64.768h-53.567c-21.438 0-40.8 10.357-49.178 30.09l-103.03 242.655h26.928z"/><path d="M681.326 1792.078h-26.142a2.206 2.206 0 0 1-2.03-3.068l88.767-208.906a24.196 24.196 0 0 0-2.096-22.87 24.195 24.195 0 0 0-20.228-10.872h-51.39a24.218 24.218 0 0 0-22.324 14.771l-97.559 229.602a2.206 2.206 0 0 1-2.03 1.343h-26.927a2.206 2.206 0 0 1-2.03-3.067l103.03-242.654c8.357-19.683 27.501-31.434 51.208-31.434h53.567c17.523 0 33.499 8.33 42.734 22.285 8.953 13.528 10.333 30.131 3.786 45.55l-88.307 207.976a2.203 2.203 0 0 1-2.029 1.344zm-22.81-4.411h21.35l87.737-206.632c5.958-14.033 4.718-29.121-3.405-41.393-8.415-12.716-23.016-20.308-39.055-20.308h-53.567c-21.88 0-39.506 10.747-47.149 28.746L522.7 1787.667h22.135l96.989-228.259a28.62 28.62 0 0 1 26.383-17.456h51.39a28.598 28.598 0 0 1 23.907 12.849 28.596 28.596 0 0 1 2.477 27.028l-87.465 205.838z"/><path style="fill:#f5f5f5" d="M596.97 2130.725h-95.116c-26.404 0-44.264-26.923-33.998-51.249l134.924-319.712a36.901 36.901 0 0 1 33.998-22.554h95.116c26.404 0 44.264 26.922 33.998 51.249l-134.924 319.712a36.901 36.901 0 0 1-33.998 22.554z"/><path d="M596.97 2132.93h-95.116a39.014 39.014 0 0 1-32.588-17.489 39.016 39.016 0 0 1-3.441-36.823l134.924-319.712a39.03 39.03 0 0 1 36.03-23.901h95.116a39.014 39.014 0 0 1 32.588 17.489 39.019 39.019 0 0 1 3.442 36.823L633 2109.028a39.028 39.028 0 0 1-36.03 23.902zm39.808-393.515a34.63 34.63 0 0 0-31.966 21.205l-134.924 319.712a34.618 34.618 0 0 0 3.053 32.671 34.62 34.62 0 0 0 28.913 15.516h95.116a34.627 34.627 0 0 0 31.966-21.206l134.924-319.711a34.616 34.616 0 0 0-3.053-32.671 34.62 34.62 0 0 0-28.913-15.516h-95.116z"/><path style="fill:#f5f5f5" d="M510.769 2130.725H369.053c-22.031 0-36.933-22.464-28.367-42.761l140.083-331.935a30.789 30.789 0 0 1 28.367-18.818h141.716c22.031 0 36.933 22.464 28.367 42.761l-140.083 331.935a30.79 30.79 0 0 1-28.367 18.818z"/><path d="M510.769 2132.93H369.053a32.924 32.924 0 0 1-27.496-14.756 32.92 32.92 0 0 1-2.903-31.068l140.082-331.935a32.932 32.932 0 0 1 30.4-20.167h141.716a32.919 32.919 0 0 1 27.495 14.755 32.92 32.92 0 0 1 2.904 31.069l-140.083 331.935a32.93 32.93 0 0 1-30.399 20.167zm-1.632-393.515a28.528 28.528 0 0 0-26.336 17.47L342.719 2088.82a28.522 28.522 0 0 0 2.515 26.915 28.519 28.519 0 0 0 23.819 12.783h141.716a28.527 28.527 0 0 0 26.335-17.47l140.083-331.935a28.519 28.519 0 0 0-2.517-26.916 28.516 28.516 0 0 0-23.818-12.782H509.137z"/><path d="M499.975 2086.231a14.596 14.596 0 0 1-12.189-6.541 14.593 14.593 0 0 1-1.287-13.771l116.171-275.277a14.6 14.6 0 0 1 13.475-8.94c4.915 0 9.471 2.446 12.188 6.541a14.591 14.591 0 0 1 1.288 13.773L513.45 2077.292a14.594 14.594 0 0 1-13.475 8.939zm116.171-300.118a10.194 10.194 0 0 0-9.411 6.243l-116.171 275.277c-1.355 3.21-1.027 6.716.899 9.619 1.925 2.903 5.028 4.568 8.512 4.568 4.117 0 7.811-2.451 9.411-6.242l116.171-275.277c1.355-3.21 1.027-6.717-.899-9.62-1.925-2.903-5.028-4.568-8.512-4.568zM449.331 2086.231a14.596 14.596 0 0 1-12.189-6.541 14.59 14.59 0 0 1-1.287-13.771l116.171-275.277a14.601 14.601 0 0 1 13.475-8.94c4.915 0 9.471 2.446 12.188 6.541a14.594 14.594 0 0 1 1.288 13.773l-116.171 275.277a14.596 14.596 0 0 1-13.475 8.938zm116.171-300.118a10.194 10.194 0 0 0-9.411 6.243L439.92 2067.633c-1.355 3.21-1.027 6.716.899 9.619 1.925 2.903 5.028 4.568 8.512 4.568 4.117 0 7.811-2.451 9.411-6.242l116.171-275.277c1.355-3.21 1.027-6.716-.899-9.619-1.926-2.904-5.028-4.569-8.512-4.569zM398.686 2086.231a14.596 14.596 0 0 1-12.189-6.541 14.593 14.593 0 0 1-1.287-13.771l116.171-275.277a14.601 14.601 0 0 1 13.475-8.94c4.915 0 9.471 2.446 12.188 6.541a14.594 14.594 0 0 1 1.288 13.773l-116.171 275.277a14.595 14.595 0 0 1-13.475 8.938zm116.172-300.118a10.194 10.194 0 0 0-9.411 6.243l-116.171 275.277c-1.355 3.21-1.027 6.716.899 9.619 1.925 2.903 5.028 4.568 8.512 4.568 4.117 0 7.811-2.451 9.411-6.242l116.171-275.277c1.355-3.21 1.027-6.716-.899-9.619-1.926-2.904-5.029-4.569-8.512-4.569z"/><path style="fill:#f5f5f5" d="m740.692 1455.615-27.209-4.947s-3.539 30.534-10.05 37.236c-10.608 10.92-19.932 15.637-23.788 21.837-22.381 35.994 46.194 71.06 38.924 43.798-5.935-22.257 2.831-29.862 2.831-29.862 9.974-8.644 24.443-2.435 24.547-2.624 5.447-9.895-.756-24.883-4.927-32.922-2.059-3.969-2.862-8.462-2.393-12.909l2.065-19.607z"/><path d="M712.424 1565.455c-7.779.001-19.119-5.826-27.78-14.88-12.706-13.281-15.209-28.59-6.871-41.999 2.246-3.614 5.95-6.578 10.637-10.332 4.013-3.213 8.563-6.855 13.441-11.877 4.913-5.057 8.481-27.667 9.442-35.953a2.204 2.204 0 0 1 2.585-1.915l27.209 4.947a2.206 2.206 0 0 1 1.799 2.401l-2.065 19.607c-.43 4.08.317 8.113 2.158 11.662 4.38 8.442 10.839 24.215 4.901 35.001-.878 1.611-2.585 1.07-3.23.865-11.539-3.661-18.229-.737-21.804 2.363-.054.05-7.582 7.238-2.144 27.627 1.927 7.228-1.139 10.191-3.139 11.314-1.415.793-3.163 1.169-5.139 1.169zm2.959-112.201c-1.011 7.698-4.4 30.041-10.369 36.186-5.07 5.219-9.937 9.116-13.848 12.248-4.358 3.489-7.801 6.246-9.648 9.216-10.211 16.423 1.013 31.082 6.313 36.622 9.786 10.233 23.083 15.434 27.57 12.913 1.573-.884 1.922-3.014 1.037-6.332-6.219-23.321 3.116-31.749 3.517-32.097 4.292-3.72 12.043-7.287 24.8-3.605 3.537-9.007-1.946-22.037-5.693-29.26-2.241-4.317-3.15-9.212-2.63-14.156l1.851-17.572-22.9-4.163z"/><path style="fill:#f5f5f5" d="m888.372 1272.425-39.565 187.999s161.123 27.633 217.273 17.549c56.15-10.085 62.712-24.891 62.712-24.891l-23.736-206.767-216.684 26.11z"/><path d="M1033.268 1482.412c-68.368 0-179.287-18.864-184.834-19.815a2.209 2.209 0 0 1-1.786-2.629l39.566-187.999a2.206 2.206 0 0 1 1.894-1.735l216.683-26.11a2.207 2.207 0 0 1 2.455 1.938l23.735 206.766a2.22 2.22 0 0 1-.175 1.146c-.286.648-7.686 15.994-64.337 26.169-8.879 1.595-20.287 2.269-33.201 2.269zm-181.83-23.782c19.735 3.281 162.713 26.425 214.252 17.172 48.348-8.684 59.148-20.845 60.826-23.209l-23.398-203.823-212.912 25.655-38.768 184.205z"/><path style="fill:#f5f5f5" d="M1203.443 1159.883c-2.752-11.006-15.206-29.503-26.447-27.977-16.391 2.225-36.183 15.3-36.798 9.527-5.449-51.13-41.629-83.615-91.721-89.903-11.714-4.027-23.49-6.1-34.478-5.614-17.519.775-36.039 3.246-53.355 8.688l-81.272 25.544-.8 6.127c-41.62 23.873-169.416 118.553-182.338 386.468l52.923-1.895s37.549-116.15 104.558-194.266l-9.5 72.729c-1.678 12.845 5.719 25.172 17.874 29.65 38.936 14.345 130.915 39.683 257.929 20.057 13.26-2.049 23.135-13.337 23.469-26.75.435-17.426 3.271-41.494 5.854-67.813 9.656 3.3 19.967 5.209 30.999 5.396 37.592.638 40.833-79.074 23.103-149.968z"/><path d="M696.234 1474.949a2.206 2.206 0 0 1-2.203-2.312c5.554-115.15 32.725-211.321 80.757-285.838 38.183-59.24 79.753-89.113 101.739-101.888l.659-5.047a2.207 2.207 0 0 1 1.526-1.819l81.272-25.545c15.728-4.944 33.868-7.9 53.918-8.787 10.902-.479 22.687 1.422 35.076 5.659 52.918 6.726 87.776 40.84 93.36 91.335 1.876-.012 7.045-2.088 11.266-3.784 6.811-2.737 15.289-6.142 23.097-7.202 12.897-1.747 26.024 18.189 28.883 29.627 12.562 50.229 16.668 116.141-4 142.157-5.676 7.144-12.823 10.681-21.28 10.552a103.329 103.329 0 0 1-29.036-4.653c-.48 4.833-.965 9.583-1.44 14.224-2.037 19.948-3.797 37.177-4.135 50.695-.362 14.519-11.018 26.662-25.337 28.875-125.232 19.347-216.042-4.33-259.028-20.167-13.189-4.86-21.125-18.021-19.299-32.005l8.522-65.237c-62.95 76.742-98.929 186.61-99.294 187.738a2.207 2.207 0 0 1-2.02 1.526l-52.923 1.895-.08.001zm185.142-393.118-.617 4.731a2.205 2.205 0 0 1-1.09 1.628c-39.131 22.444-167.541 116.221-181.114 382.265l48.992-1.755c4.651-13.776 42.034-120.74 104.493-193.552a2.204 2.204 0 0 1 3.86 1.721l-9.5 72.729c-1.558 11.929 5.207 23.153 16.45 27.295 42.587 15.689 132.585 39.143 256.83 19.947 12.208-1.887 21.293-12.244 21.602-24.626.341-13.689 2.109-30.994 4.157-51.033.562-5.508 1.14-11.17 1.707-16.94a2.203 2.203 0 0 1 2.907-1.872c9.73 3.325 19.932 5.101 30.323 5.277 6.988.104 12.974-2.871 17.751-8.885 16.647-20.954 17.982-79.136 3.175-138.343-2.76-11.038-14.844-27.555-24.011-26.327-7.264.986-15.46 4.279-22.046 6.925-8.611 3.459-12.87 5.052-15.505 3.471-.99-.596-1.605-1.597-1.736-2.82-5.186-48.663-38.757-81.541-89.803-87.948a2.242 2.242 0 0 1-.443-.102c-11.945-4.106-23.256-5.948-33.664-5.497-19.666.87-37.427 3.76-52.79 8.589l-79.928 25.122z"/><path d="M1155.867 1248.068a2.205 2.205 0 0 1-2.195-2.432c2.797-27.137-1.798-65.055-12.293-101.432a2.207 2.207 0 0 1 4.239-1.223c10.802 37.443 15.336 75.025 12.442 103.107a2.207 2.207 0 0 1-2.193 1.98z"/><path style="fill:#f5f5f5" d="M1030.048 1049.823s-70.408-6.705-126.414 4.368c-33.192 6.562-96.158 31.047-48.1 80.452s81.14 44.703 96.987 17.063c15.846-27.642 44.108-91.578 77.527-101.883z"/><path d="M920.066 1174.455c-18.924 0-41.65-13.125-66.113-38.275-15.258-15.685-20.896-30.372-16.758-43.653 8.674-27.84 56.51-38.621 66.012-40.499 55.678-11.007 126.344-4.467 127.051-4.4a2.206 2.206 0 0 1 .441 4.303c-26.885 8.291-51.109 53.892-67.139 84.067-3.303 6.218-6.422 12.089-9.125 16.805-7.128 12.433-17.327 19.816-29.495 21.351a38.976 38.976 0 0 1-4.874.301zm60.553-124.411c-23.321 0-51.494 1.355-76.557 6.31-25.06 4.954-56.505 17.744-62.655 37.485-3.62 11.618 1.665 24.83 15.708 39.266 25.597 26.315 48.867 38.988 67.271 36.673 10.741-1.356 19.808-7.985 26.221-19.171 2.668-4.653 5.772-10.495 9.057-16.68 14.763-27.791 36.335-68.397 61.424-82.574a630.063 630.063 0 0 0-40.469-1.309z"/><path d="M882.863 1104.492c-8.889 0-17.139-3.006-25.316-9.507a2.204 2.204 0 0 1-.354-3.098 2.202 2.202 0 0 1 3.098-.354c22.144 17.599 44.737 7.025 84.02-21.706 5.641-4.125 10.683-7.529 14.985-10.117a2.205 2.205 0 1 1 2.274 3.78c-4.19 2.52-9.121 5.849-14.656 9.897-26.673 19.508-46.593 31.105-64.051 31.105z"/><path style="fill:#f5f5f5" d="M1169.669 1143.821c3.431-3.247 4.715-8.105 3.526-12.676-.868-3.336-1.579-7.637-1.365-12.387.488-10.858-3.322-31.059-13.397-40.037-7.409-6.603-26.793-11.047-43.909-7.987-2.466.441-4.539 2.347-4.794 4.839-.201 1.962.6 4.3 4.178 6.314 6.512 3.666 9.957.913 14.474 3.744 5.609 3.516 16.436 21.469 8.94 25.697-6.816 3.844-9.13-12.84-14.506-16.348-4.285-2.795-9.425-1.837-12.003 2.49-3.74 6.276 15.881 32.829 24.285 39.353 3.073 2.386 6.97 5.432 10.677 8.337 7.07 5.539 17.129 5.066 23.652-1.108l.242-.231z"/><path d="M1156.935 1151.183c-4.425 0-8.857-1.417-12.521-4.288a3252.334 3252.334 0 0 0-10.669-8.33c-7.886-6.122-29.757-33.949-24.827-42.223 1.504-2.524 3.826-4.26 6.537-4.889 2.852-.66 5.894-.064 8.565 1.68 2.644 1.724 4.369 5.332 6.194 9.153 1.46 3.057 3.278 6.862 4.868 7.363.14.045.469.147 1.156-.242.592-.334 1.386-1.008 1.432-2.989.141-6.042-6.61-16.503-10.461-18.919-1.635-1.024-3.055-1.099-5.02-1.203-2.431-.128-5.456-.289-9.364-2.487-4.809-2.708-5.532-6.095-5.289-8.46.344-3.363 3.058-6.154 6.6-6.786 16.629-2.975 37.159.845 45.764 8.511 10.619 9.463 14.657 30.131 14.132 41.783-.171 3.816.265 7.764 1.297 11.733 1.405 5.398-.182 11.079-4.14 14.829l-.242.23c-3.879 3.671-8.941 5.534-14.012 5.534zm-39.183-55.581c-.44 0-.876.048-1.302.148-1.553.359-2.847 1.345-3.744 2.849-2.528 4.243 14.707 29.466 23.744 36.481 3.075 2.388 6.976 5.437 10.684 8.343 6.162 4.826 15.092 4.409 20.776-.974l.239-.227.003-.004c2.794-2.644 3.908-6.674 2.907-10.519-1.143-4.397-1.625-8.785-1.434-13.041.472-10.472-3.226-29.885-12.66-38.292-6.765-6.027-25.276-10.464-42.054-7.462-1.614.289-2.843 1.479-2.988 2.894-.058.57-.235 2.308 3.067 4.166 3.006 1.693 5.156 1.807 7.432 1.927 2.226.117 4.527.239 7.131 1.87 4.848 3.04 12.71 14.935 12.528 22.758-.091 3.899-2.048 5.812-3.675 6.729-1.95 1.098-3.603.936-4.651.606-3.417-1.079-5.41-5.251-7.521-9.668-1.414-2.959-3.016-6.312-4.624-7.361-1.235-.805-2.567-1.223-3.858-1.223z"/><path style="fill:#f5f5f5" d="M1039.543 1138.642s2.602-118.394 54.643-71.557c0 0-20.817-37.73-54.643-19.516-33.827 18.214-35.128 88.47-35.128 88.47l35.128 2.603z"/><path d="M1039.543 1140.847a2.22 2.22 0 0 1-.163-.006l-35.128-2.603a2.206 2.206 0 0 1-2.043-2.24c.055-2.921 1.723-71.759 36.288-90.37 35.343-19.024 57.402 19.997 57.62 20.392a2.205 2.205 0 0 1-3.406 2.704c-10.221-9.199-19.005-12.306-26.107-9.238-23.071 9.972-24.841 78.514-24.856 79.205a2.213 2.213 0 0 1-.722 1.584 2.21 2.21 0 0 1-1.483.572zm-32.843-6.849 30.714 2.275c.509-12.619 4.112-70.753 27.44-80.836 5.652-2.443 11.942-1.94 18.788 1.49-8.672-8.802-23.535-17.926-43.054-7.416-29.1 15.669-33.327 72.819-33.888 84.487z"/><path style="fill:#f5f5f5" d="M986.847 1117.965c25.754-10.775 55.656-2.7 72.584 19.499 9.227 12.101 18.747 28.888 26.822 52.102 25.364 72.921 36.46 169.62 31.705 194.984-4.756 25.364-26.449 37.666-54.841 47.771-14.561 5.183-78.109 2.198-120.809-.526-22.791-1.454-40.772-19.905-41.635-42.726-1.955-51.713-4.365-139.075.108-170.969 8.053-57.419 53.379-86.46 86.066-100.135z"/><path d="M1026.367 1437.362c-24.615 0-56.475-1.598-84.199-3.367a46.575 46.575 0 0 1-43.699-44.843c-1.894-50.145-4.398-139.086.128-171.358 8.042-57.333 51.967-87.04 87.4-101.863 26.685-11.166 57.608-2.861 75.189 20.196 10.755 14.104 19.89 31.841 27.15 52.715 24.59 70.698 36.827 169.246 31.789 196.114-5.194 27.701-30.114 40.133-56.269 49.443-6.036 2.148-19.919 2.963-37.489 2.963zm-38.669-317.363c-34.376 14.382-76.98 43.13-84.733 98.407-4.478 31.934-1.977 120.581-.087 170.58a42.172 42.172 0 0 0 39.57 40.607c66.582 4.248 109.172 4.48 119.929.65 28.794-10.248 48.896-22.01 53.413-46.1 4.405-23.494-5.668-119.245-31.619-193.853-7.107-20.433-16.02-37.757-26.493-51.49-16.365-21.461-45.14-29.191-69.98-18.801z"/><path style="fill:#f5f5f5" d="M1041.211 1321.971s22.233 108.387 22.233 120.894-13.896 12.506-31.96 13.896c-18.065 1.39-115.335 6.948-141.738-18.065-26.402-25.012-27.792-111.167-18.065-123.673s27.792-23.623 27.792-23.623 63.723 15.836 122.283 8.338c.001 0 12.453-3.18 19.455 22.233z"/><path d="M989.125 1460.49c-35.734 0-83.187-3.418-100.894-20.193-27.905-26.437-28.241-113.834-18.29-126.628 9.86-12.676 27.626-23.685 28.378-24.147a2.215 2.215 0 0 1 1.687-.263c.632.157 63.941 15.628 121.379 8.302 1.732-.354 14.817-2.078 21.952 23.824.014.047.025.095.034.142.91 4.435 22.28 108.751 22.28 121.337 0 13.626-13.923 14.634-30.044 15.803l-3.953.292c-4.354.335-21.393 1.531-42.529 1.531zm-89.257-166.729c-3.501 2.247-18.195 12.01-26.445 22.616-9.246 11.888-8.002 96.237 17.841 120.719 21.767 20.621 98.275 20.683 140.051 17.466l3.973-.294c17.054-1.235 25.953-2.303 25.953-11.403 0-12.011-21.496-117.063-22.174-120.377-6.258-22.637-16.688-20.622-16.798-20.605a3.088 3.088 0 0 1-.23.042c-54.478 6.979-114.07-6.267-122.171-8.164z"/><path d="M1086.721 1376.286a2.207 2.207 0 0 1-2.186-1.937c-5.641-46.002-16.278-93.67-29.186-130.781-7.107-20.433-16.021-37.756-26.493-51.488-16.365-21.462-45.14-29.194-69.98-18.803-12.527 5.241-24.021 11.537-34.163 18.714a2.206 2.206 0 0 1-2.548-3.601c10.406-7.362 22.185-13.817 35.01-19.182 26.686-11.166 57.608-2.861 75.19 20.196 10.755 14.104 19.89 31.84 27.15 52.714 13.007 37.394 23.723 85.394 29.4 131.694a2.206 2.206 0 0 1-2.194 2.474zM979.778 1350.421c-35.739 0-83.209-3.417-100.916-20.192a2.207 2.207 0 0 1 3.035-3.203c21.76 20.616 98.273 20.682 140.051 17.467a2.206 2.206 0 0 1 .338 4.398c-4.352.336-21.382 1.53-42.508 1.53zM2064.518 2162.794h-581.92c-24.757 0-44.827-21.368-44.827-47.726l56.733-1255.981c0-26.358 20.07-47.726 44.827-47.726h581.919c24.758 0 44.827 21.368 44.827 47.726l-56.733 1255.981c.002 26.359-20.068 47.726-44.826 47.726z"/><path style="fill:#f5f5f5" d="M2064.517 2165h-581.919c-25.934 0-47.031-22.399-47.031-49.931l56.736-1256.081c-.002-27.433 21.095-49.832 47.029-49.832h581.919c25.934 0 47.033 22.399 47.033 49.931l-56.736 1256.081c.003 27.433-21.097 49.832-47.031 49.832zM1539.332 813.566c-23.501 0-42.621 20.421-42.621 45.521l-56.736 1256.081c.002 25.001 19.122 45.422 42.623 45.422h581.919c23.503 0 42.623-20.421 42.623-45.521l56.736-1256.081c-.002-25.001-19.122-45.422-42.625-45.422h-581.919z"/><path style="fill:#f5f5f5" d="m1458.427 897.663 1.627-35.853c0-26.243 20.07-47.517 44.827-47.517h581.92c24.758 0 44.827 21.274 44.827 47.517l-56.733 1250.481c0 26.243-20.07 47.517-44.827 47.517h-581.92c-24.757 0-44.827-21.274-44.827-47.517l47.205-1032.096 7.901-182.532z"/><path d="M2030.067 2162.014h-581.919c-25.934 0-47.034-22.305-47.034-49.722l47.208-1032.198c.056-1.217 1.09-2.139 2.304-2.102a2.206 2.206 0 0 1 2.102 2.304l-47.206 1032.096c.002 24.883 19.122 45.211 42.625 45.211h581.919c23.503 0 42.623-20.327 42.623-45.312l56.734-1250.582c-.002-24.884-19.122-45.212-42.623-45.212h-581.919c-23.503 0-42.623 20.327-42.623 45.312l-1.628 35.953c-.056 1.217-1.154 2.149-2.302 2.103a2.206 2.206 0 0 1-2.104-2.303l1.626-35.853c-.002-27.317 21.097-49.622 47.031-49.622H2086.8c25.934 0 47.031 22.305 47.031 49.722l-56.734 1250.582c.004 27.317-21.095 49.623-47.03 49.623z"/><path d="M2008.804 2138.107h-537.97c-24.067 0-43.648-20.696-43.648-46.134L1482.721 900.5c-.002-25.336 19.579-46.031 43.646-46.031h537.97c24.067 0 43.646 20.695 43.646 46.133l-55.534 1191.473c.001 25.337-19.578 46.032-43.645 46.032zM1526.366 858.88c-21.635 0-39.237 18.716-39.237 41.723l-55.534 1191.473c.002 22.904 17.604 41.62 39.24 41.62h537.97c21.633 0 39.235-18.716 39.235-41.723L2103.574 900.5c-.002-22.904-17.604-41.62-39.238-41.62h-537.97z"/><path d="M2095.935 1115.271h-620.853a2.205 2.205 0 0 1-2.203-2.308l9.842-212.463c-.002-25.336 19.579-46.031 43.646-46.031h537.97c24.067 0 43.646 20.695 43.646 46.133l-9.844 212.566a2.207 2.207 0 0 1-2.204 2.103zm-618.543-4.41h616.436l9.745-210.36c-.002-22.904-17.604-41.62-39.238-41.62h-537.97c-21.635 0-39.237 18.716-39.237 41.723l-9.736 210.257z"/><path style="fill:#f5f5f5" d="M1909.344 1055.381h-537.969c-22.888 0-41.442-19.667-41.442-43.928l1.814-53.165c0-24.261 18.554-43.928 41.442-43.928h537.969c22.888 0 41.442 19.667 41.442 43.928l-1.814 53.165c0 24.261-18.554 43.928-41.442 43.928z"/><path d="M1909.344 1057.587h-537.97c-24.067 0-43.646-20.696-43.646-46.135l1.815-53.24c-.002-25.362 19.577-46.058 43.644-46.058h537.97c24.067 0 43.648 20.696 43.648 46.133l-1.818 53.241c.003 25.363-19.576 46.059-43.643 46.059zm-536.156-141.022c-21.633 0-39.235 18.716-39.235 41.723l-1.816 53.241c.002 22.931 17.604 41.648 39.237 41.648h537.97c21.633 0 39.235-18.717 39.235-41.724l1.818-53.24c-.002-22.931-17.604-41.647-39.24-41.647h-537.969z"/><path d="M1683.837 1006.192h-242.211c-11.757 0-21.321-9.565-21.321-21.322s9.564-21.321 21.321-21.321h242.211c11.757 0 21.321 9.564 21.321 21.321 0 11.757-9.564 21.322-21.321 21.322zm-242.21-38.233c-9.325 0-16.911 7.586-16.911 16.911 0 9.325 7.585 16.912 16.911 16.912h242.211c9.325 0 16.911-7.586 16.911-16.912 0-9.324-7.585-16.911-16.911-16.911h-242.211zM1840.906 1006.192h-61.076c-11.757 0-21.321-9.565-21.321-21.322s9.564-21.321 21.321-21.321h61.076c11.757 0 21.323 9.564 21.323 21.321 0 11.757-9.567 21.322-21.323 21.322zm-61.076-38.233c-9.325 0-16.91 7.586-16.91 16.911 0 9.325 7.585 16.912 16.91 16.912h61.076c9.325 0 16.913-7.586 16.913-16.912 0-9.324-7.587-16.911-16.913-16.911h-61.076zM1672.534 811.639l14.036 21.927c8.525 13.318 22.811 21.308 38.101 21.308h141.703c14.961 0 28.983-7.651 37.574-20.502l15.198-22.733h-246.612zM2025.252 1210.933h-180.933c-9.088 0-16.484-7.396-16.484-16.486 0-9.089 7.396-16.485 16.484-16.485h180.933c9.088 0 16.484 7.396 16.484 16.485 0 9.091-7.396 16.486-16.484 16.486zm-180.933-28.56c-6.657 0-12.073 5.416-12.073 12.074 0 6.658 5.417 12.076 12.073 12.076h180.933c6.657 0 12.073-5.418 12.073-12.076s-5.417-12.074-12.073-12.074h-180.933zM1859.903 2060.231h-238.61c-23.802 0-43.166-19.364-43.166-43.165 0-23.802 19.363-43.166 43.166-43.166h238.61c23.802 0 43.166 19.364 43.166 43.166 0 23.802-19.364 43.165-43.166 43.165zm-238.61-81.919c-21.369 0-38.755 17.385-38.755 38.755 0 21.369 17.386 38.754 38.755 38.754h238.61c21.368 0 38.755-17.385 38.755-38.754 0-21.37-17.387-38.755-38.755-38.755h-238.61zM2022.435 1268.327h-126.09c-9.091 0-16.486-7.396-16.486-16.485 0-9.089 7.396-16.485 16.486-16.485h126.09c9.088 0 16.484 7.396 16.484 16.485 0 9.09-7.396 16.485-16.484 16.485zm-126.09-28.559c-6.659 0-12.076 5.417-12.076 12.074 0 6.658 5.416 12.075 12.076 12.075h126.09c6.657 0 12.073-5.417 12.073-12.075 0-6.658-5.416-12.074-12.073-12.074h-126.09zM2020.21 1325.722h-164.927c-9.088 0-16.484-7.396-16.484-16.485 0-9.089 7.396-16.485 16.484-16.485h164.927c9.091 0 16.486 7.396 16.486 16.485 0 9.09-7.395 16.485-16.486 16.485zm-164.927-28.559c-6.657 0-12.073 5.416-12.073 12.074s5.416 12.074 12.073 12.074h164.927c6.659 0 12.076-5.416 12.076-12.074s-5.417-12.074-12.076-12.074h-164.927z"/><ellipse style="fill:#f5f5f5" cx="1754.071" cy="1638.326" rx="257.866" ry="259.612"/><path d="M1738.206 1465.838c-.461 0-.928-.044-1.402-.133-4.204-.79-8.444-5.244-11.343-11.913-2.169-4.99-2.003-13.935-1.846-22.586.121-6.457.243-13.134-.803-15.868-1.725-4.525-2.974-4.499-7.693-4.395-.704.016-1.452.032-2.25.032-5.212 0-8.647-2.991-10.006-5.553-.941-1.772-1.004-3.492-.172-4.72 9.032-13.339 37.448-10.067 52.711-8.313 24.733 2.846 27.203 15.572 26.475 22.905-1.215 12.258-24.201 25.467-28.797 27.99-2.319 1.274-3.482 5.43-4.607 9.45-1.116 3.987-2.268 8.11-4.807 10.666-1.6 1.61-3.465 2.438-5.46 2.438zm-21.487-59.331c4.146 0 7.712.703 10.215 7.257 1.35 3.533 1.23 10.016 1.092 17.522-.144 7.798-.306 16.638 1.48 20.748 2.246 5.167 5.432 8.831 8.115 9.336.672.129 1.695.15 2.916-1.078 1.729-1.742 2.724-5.303 3.689-8.746 1.37-4.897 2.787-9.962 6.73-12.128 8.815-4.84 25.702-16.202 26.531-24.56 1.258-12.656-11.591-16.821-22.59-18.086-14.208-1.636-40.543-4.664-48.347 6.108.265.995 2.302 3.685 6.319 3.685.762 0 1.479-.016 2.151-.031a70.511 70.511 0 0 1 1.699-.027zm-10.376-3.333.002-.002-.002.002zM1674.547 1873.344c-3.433 0-7.258-2.013-9.536-4.065-5.675-5.109-15.728-25.989-20.436-38.71-3.668-9.906-5.559-40.263-6.808-60.35-.375-6-.698-11.182-.973-14.159-.877-9.474-4.29-10.77-15.603-15.066-1.856-.705-3.89-1.477-6.114-2.368-16.949-6.782-18.573-13.58-18.244-27.475.028-1.153-.082-2.715-.207-4.523-.541-7.731-1.445-20.67 7.355-28.595 7.06-6.355 10.773-27.246 10.359-36.05-.172-3.708 1.912-7.112 5.442-8.886 6.129-3.081 16.463-5.719 30.883-.808 6.2 2.113 8.985 5.501 11.679 8.778 2.143 2.608 4.17 5.072 8.057 7.04 2.785 1.412 6.317 2.3 9.732 3.161 7.243 1.822 16.254 4.09 14.177 12.972-2.001 8.56 9.564 17.628 28.127 22.052 12.005 2.861 20.916 10.914 21.672 19.584.513 5.864-2.787 10.781-9.052 13.488-13.876 5.998-13.004 9.92-11.561 16.416.594 2.682 1.712 5.543 2.793 8.31 2.223 5.692 4.144 10.609 1.342 13.636-3.642 3.935-14.964 7.183-18.642 8.012-3.79.853-8.345 5.402-9.388 13.373-1.24 9.501-16.038 32.943-25.038 43.21-7.18 8.19-4.236 15.047 2.216 30.069l1.658 3.877c3.442 8.111 3.444 13.468.004 15.921-1.142.816-2.484 1.156-3.894 1.156zm-39.244-239.366c-5.845 0-10.353 1.458-13.54 3.06-1.953.981-3.108 2.797-3.017 4.738.442 9.411-3.329 31.896-11.815 39.535-7.2 6.486-6.422 17.633-5.905 25.009.133 1.918.25 3.575.217 4.935-.299 12.536.896 17.444 15.472 23.277 2.199.879 4.208 1.642 6.041 2.339 11.518 4.373 17.3 6.569 18.431 18.782.28 3.044.59 8.008.982 14.292 1.159 18.625 3.099 49.796 6.541 59.093 4.938 13.337 14.625 32.799 19.251 36.963 2.533 2.28 6.521 3.592 7.921 2.598 1.062-.758 1.305-3.991-1.505-10.608l-1.65-3.859c-6.545-15.238-10.495-24.435-1.48-34.717 9.162-10.451 22.954-32.994 23.983-40.873 1.322-10.125 7.376-15.886 12.791-17.105 5.248-1.181 14.1-4.249 16.372-6.704.926-1-.963-5.835-2.212-9.036-1.141-2.922-2.322-5.944-2.991-8.958-2.145-9.665-.618-15.052 14.119-21.421 4.473-1.933 6.747-5.149 6.407-9.057-.485-5.565-6.418-12.844-18.3-15.676-21.414-5.103-34.032-16.093-31.4-27.346.939-4.018-1.77-5.38-10.958-7.692-3.653-.92-7.428-1.869-10.652-3.503-4.712-2.387-7.24-5.462-9.47-8.174-2.513-3.056-4.682-5.695-9.694-7.403-5.279-1.802-9.925-2.489-13.939-2.489zm-14.531 1.09h.022-.022zM1865.02 1797.79c-1.969 0-3.857-.941-5.438-2.767-8.044-9.299-8.49-41.232 1.779-56.514 11.171-16.626 4.848-29.451.086-35.617-1.004-1.299-4.055-5.249-3.767-36.551l.006-.779c0-.201.026-.519.067-.932.196-1.98.655-6.619-2.94-9.98-3.256-3.042-10.953-6.028-29.197-2.964-13.579 2.277-23.677.198-29.981-6.187-6.976-7.062-9.026-18.881-6.093-35.128 1.316-7.289.11-13.231-.954-18.473-.659-3.239-1.279-6.298-1.279-9.366 0-9.782 12.661-17.628 23.281-22.486 6.013-2.752 10.307-6.052 14.462-9.243 3.989-3.066 7.758-5.961 12.552-7.948 7.848-3.257 11.21 2.48 13.904 7.09 1.396 2.386 2.839 4.853 4.852 6.543 1.725 1.448 2.526 1.168 5.044-.002 3.282-1.528 8.242-3.841 16.706 1.486 8.649 5.44 18.36 3.176 22.198-.063.805-.678 2.072-2.011 1.533-3.315-.833-2.015-2.518-2.73-5.425-3.821-3.681-1.382-8.261-3.101-11.05-9.419-3.243-7.347 2.698-12.081 7.473-15.883 3.022-2.407 6.144-4.894 6.678-7.579.553-2.788-.862-6.497-3.881-10.175-3.327-4.054-7.447-6.564-9.353-6.564-.459.47-.887 3.539-1.172 5.568-.844 6.039-2.003 14.309-9.642 17.002-6.625 2.332-12.758-1.028-18.683-4.282-5.061-2.778-9.836-5.399-14.623-4.488-5.399 1.036-10.54 7.812-15.982 14.986-4.973 6.555-10.116 13.333-16.333 16.871-4.934 2.808-9.564 2.148-12.373-1.772-4.167-5.814-3.245-18.257 3.771-24.488 7.51-6.672 7.18-15.901 7.004-20.859a52.783 52.783 0 0 1-.047-1.849c0-1.62.398-5.746 4.079-9.087 3.963-3.594 10.256-4.999 18.683-4.178 7.751.75 11.475-.925 13.245-2.465 1.751-1.524 1.932-3.188 1.938-3.258 2.358-16.648-.256-20.489-1.49-21.375-.982-.706-2.367-.311-3.405.185-.588.627-2.031 3.1-3.2 5.104-4.691 8.037-10.549 18.038-16.831 16.741-4.449-.916-7.103-6.789-8.602-19.04-2.052-16.744.015-27.469 6.138-31.877 5.429-3.907 11.824-1.326 12.819-.883 10.428 3.678 18.468 3.573 23.903-.318 7.895-5.649 8.604-17.871 8.544-22.864a2.207 2.207 0 0 1 3.17-2.01c69.899 34.044 120.671 96.956 139.301 172.606.075.306.084.625.026.935-2.091 11.145-5.727 19.771-10.803 25.634-4.699 5.43-3.986 10.596-3.297 15.591.538 3.888 1.092 7.91-1.676 11.005-.633.71-1.314 1.733-1.973 2.721-1.844 2.774-3.95 5.91-7.161 5.278-3.181-.634-6.79-3.82-12.816-34.505-6.269-31.925-19.364-36.653-26.378-36.725 4.467 3.659 10.589 9.899 11.582 17.206.558 4.101-.545 7.995-3.28 11.576-9.073 11.874-11.582 22.172-7.062 28.996 5.07 7.66 5.808 13.343 3.035 23.392-1.042 3.779-4.047 7.575-7.228 11.595-5.914 7.473-12.03 15.201-7.262 23.842 9.153 16.586-11.664 65.554-26.423 76.984-6.431 4.98-12.328 12.204-18.03 19.189-6.747 8.264-13.118 16.07-19.753 19.25-.992.47-1.994.703-2.976.703zm-25.809-151.795c8.509 0 14.744 1.814 18.614 5.432 5.188 4.849 4.555 11.234 4.318 13.638-.022.218-.043.39-.045.508l-.006.809c-.263 28.338 2.324 33.138 2.845 33.813 4.419 5.72 13.275 21.145.086 40.773-9.851 14.66-8.457 43.825-2.104 51.17 1.335 1.545 2.315 1.377 3.168.966 5.748-2.756 11.819-10.19 18.246-18.062 5.858-7.177 11.918-14.599 18.745-19.887 14.033-10.868 32.514-58.226 25.26-71.366-6.183-11.211 1.497-20.914 7.667-28.71 2.895-3.659 5.63-7.115 6.435-10.031 2.677-9.703 1.404-13.945-2.462-19.784-3.265-4.93-6.668-15.917 7.234-34.108 2.024-2.651 2.815-5.368 2.416-8.306-.937-6.892-8.333-13.162-11.468-15.539a3.627 3.627 0 0 1-1.316-3.869 3.653 3.653 0 0 1 3.127-2.675c7.437-.843 25.534 1.374 33.151 40.158 5.395 27.476 8.544 30.703 9.381 31.038.469-.208 1.852-2.286 2.595-3.404.745-1.118 1.514-2.273 2.356-3.218 1.342-1.498 1.1-3.812.597-7.462-.709-5.123-1.676-12.14 4.331-19.08 5.554-6.417 8.343-16.007 9.713-23.094-18.132-73.053-66.761-133.97-133.746-167.701-.394 6.685-2.348 17.273-10.303 22.966-6.689 4.788-16.12 5.079-28.032.856a2.498 2.498 0 0 1-.213-.087c-.039-.018-4.848-2.206-8.494.445-3.228 2.348-6.599 9.066-4.312 27.741 1.699 13.869 4.559 15.142 5.115 15.256 3.248.682 9.461-10.065 12.131-14.644 2.636-4.517 3.612-6.111 4.863-6.742 3.032-1.527 5.916-1.494 8.126.093 4.219 3.03 5.298 11.35 3.299 25.436-.004.179-.282 3.419-3.498 6.17-3.532 3.02-9.078 4.191-16.495 3.464-7.045-.684-12.332.371-15.291 3.056a7.902 7.902 0 0 0-2.634 5.82c0 .48.022 1.049.043 1.692.189 5.279.582 16.262-8.481 24.314-5.18 4.601-6.146 14.392-3.116 18.622.541.75 2.173 3.03 6.61.508 5.429-3.091 10.294-9.502 14.998-15.703 5.97-7.867 11.606-15.297 18.666-16.651 6.347-1.221 12.052 1.92 17.578 4.953 5.311 2.915 10.32 5.667 15.095 3.988 5.109-1.801 5.974-7.99 6.739-13.452.644-4.605 1.309-9.368 5.539-9.368 4.18 0 9.422 4.107 12.763 8.176 2.27 2.764 5.91 8.237 4.796 13.833-.846 4.27-4.613 7.269-8.255 10.169-4.994 3.979-7.964 6.622-6.185 10.653 2.04 4.622 5.21 5.812 8.565 7.07 2.974 1.117 6.345 2.382 7.949 6.263 1.161 2.803.127 5.933-2.763 8.372-5.894 4.974-17.752 6.491-27.39.425-6.437-4.048-9.519-2.609-12.496-1.22-2.582 1.2-5.789 2.699-9.741-.617-2.602-2.183-4.314-5.112-5.823-7.695-3.105-5.309-4.445-6.891-8.41-5.242-4.256 1.764-7.637 4.362-11.554 7.371-4.146 3.185-8.845 6.796-15.313 9.756-13.353 6.11-20.705 12.671-20.705 18.476 0 2.624.579 5.473 1.191 8.488 1.144 5.632 2.44 12.014.974 20.135-2.627 14.544-.937 25.349 4.889 31.245 5.238 5.303 14.027 6.963 26.115 4.936 5.324-.89 10.103-1.336 14.322-1.336zM1595.46 1645.426c-1.596 0-3.34-.504-5.218-1.511-11.324-6.076-50.318-56.62-48.543-85.736.136-2.217.256-4.348.373-6.406 1.378-24.284 2.21-38.94 18.976-65.58 4.424-7.026 6.504-17.025 6.183-29.718a2.216 2.216 0 0 1 .685-1.654c11.305-10.751 23.705-20.697 36.86-29.558a2.188 2.188 0 0 1 1.675-.332l.646.133c9.149 1.883 26.18 5.387 44.376-1.253 12.384-4.517 19.624-7.764 24.416-9.912 6.536-2.929 8.983-4.025 13.549-3.334 7.514 1.142 15.332 6.961 14.535 13.484-1.049 8.609-10.122 12.974-26.966 12.974-9.026 0-17.085 4.659-21.562 12.463-2.696 4.703-3.474 9.883-1.887 12.596 1.628 2.785 2.899 4.064 4.389 4.416 3.241.77 9.256-2.551 17.279-7.778 19.684-12.822 29.012-1.31 30.683 1.126 2.679 3.91-.054 9.76-3.217 16.535-1.258 2.689-2.556 5.469-3.431 8.025-1.503 4.389-1.479 8.573-1.46 11.933.017 3.048.03 5.455-.997 7.332-1.497 2.73-5.683 4.321-12.02 6.729-3.119 1.186-6.653 2.528-10.318 4.2-10.962 4.999-18.496 8.946-23.16 17.93-3.334 6.416-9.302 10.124-14.098 13.104-2.765 1.717-5.376 3.339-6.043 4.712-.642 1.313-.842 4.218-1.034 7.027-.42 6.065-.939 13.612-6.181 16.521-6.582 3.652-18.698-1.264-23.662-6.359-1.727-1.771-3.956-2.521-6.104-2.061-1.669.358-2.976 1.425-3.5 2.855-1.962 5.364-.638 12.734 3.935 21.908 6.754 13.552 10.178 25.161 10.178 34.506 0 11.086-1.839 17.349-5.787 19.711a6.811 6.811 0 0 1-3.55.972zm-23.8-188.078c.209 13.118-2.104 23.608-6.879 31.195-16.161 25.676-16.923 39.104-18.306 63.48-.119 2.063-.239 4.201-.375 6.424-1.678 27.529 37.614 76.961 46.226 81.58 1.925 1.032 3.411 1.245 4.417.642 1.361-.814 3.642-3.966 3.642-15.927 0-8.534-3.36-19.786-9.715-32.538-5.134-10.301-6.523-18.843-4.131-25.389 1.047-2.863 3.558-4.976 6.719-5.653 3.614-.767 7.417.458 10.185 3.295 4.172 4.281 14.203 7.888 18.364 5.58 3.147-1.745 3.575-7.967 3.92-12.967.243-3.526.454-6.571 1.469-8.656 1.228-2.516 4.219-4.375 7.682-6.527 4.563-2.836 9.737-6.05 12.51-11.391 5.716-11.005 15.644-15.532 25.245-19.909 3.797-1.732 7.402-3.101 10.583-4.311 4.426-1.682 9.002-3.421 9.717-4.726.478-.874.467-2.969.454-5.186-.021-3.695-.047-8.292 1.697-13.389.954-2.778 2.302-5.667 3.607-8.461 2.151-4.608 4.831-10.343 3.575-12.175-1.775-2.591-8.802-10.242-24.636.075-11.171 7.276-16.398 9.389-20.701 8.375-3.47-.82-5.578-3.737-7.182-6.481-2.421-4.138-1.686-10.818 1.869-17.017 5.272-9.192 14.761-14.679 25.387-14.679 9.799 0 21.67-1.579 22.59-9.097.372-3.069-4.546-7.636-10.822-8.589-3.179-.487-4.648.112-11.083 2.998-4.848 2.174-12.175 5.459-24.707 10.031-19.198 7.003-36.873 3.466-46.512 1.485-12.39 8.408-24.095 17.791-34.809 27.908zM1933.575 1826.891a2.206 2.206 0 0 1-2.147-1.701c-1.413-6.017-1.396-13.634-1.38-19.753l.002-1.8c0-11.351 10.962-17.977 17.511-21.935 6.5-3.925 16.297-14.653 16.689-25.214.39-10.637 6.172-15.355 10.82-19.147.991-.808 1.966-1.602 2.873-2.438 4.225-3.901 6.685-15.397 5.369-25.104-1.32-9.746.655-14.02 7.544-16.333 1.643-.551 2.479-2.825 3.284-5.023.928-2.527 2.328-6.341 6.123-5.497 2.498.559 4.577 3.554 6.599 16.351.045.286.035.578-.032.86-11.537 47.953-36.334 91.56-71.714 126.108a2.208 2.208 0 0 1-1.541.626zm65.719-139.363c-.334.584-.73 1.661-1.012 2.432-1.001 2.728-2.371 6.461-6.022 7.688-3.752 1.259-5.815 2.416-4.577 11.559 1.344 9.921-.814 23.458-6.75 28.938-.971.896-2.016 1.749-3.075 2.615-4.57 3.728-8.886 7.248-9.203 15.892-.454 12.321-11.274 24.274-18.814 28.827-6.125 3.702-15.381 9.296-15.381 18.16l-.002 1.81c-.011 4.54-.024 9.936.564 14.697 33.091-33.376 56.359-74.977 67.414-120.592-1.329-8.24-2.58-11.097-3.142-12.026z"/><path d="M1754.072 1900.143c-143.405 0-260.073-117.451-260.073-261.818 0-144.366 116.668-261.817 260.073-261.817 143.403 0 260.071 117.451 260.071 261.817 0 144.367-116.668 261.818-260.071 261.818zm0-519.224c-140.972 0-255.662 115.471-255.662 257.406s114.691 257.407 255.662 257.407 255.66-115.472 255.66-257.407-114.688-257.406-255.66-257.406z"/><path d="M1983.564 1456.701c-27.242 0-49.325 22.02-49.325 49.183 0 6.79 3.082 16.286 7.707 26.712 11.655 26.278 33.104 58.458 39.661 68.072.94 1.377 2.97 1.381 3.909.004 9.156-13.424 47.371-70.88 47.371-94.788.001-27.163-22.083-49.183-49.323-49.183z"/><circle transform="rotate(-76.714 1983.752 1505.818)" style="fill:#f5f5f5" cx="1983.563" cy="1505.765" r="21.581"/><path d="M1692.243 1638.282c-1.357 0-2.75-.05-4.137-.149a2.203 2.203 0 0 1-2.042-2.356c.086-1.215 1.118-2.113 2.356-2.044 1.292.093 2.567.138 3.823.138h.043c7.047 0 13.908-1.38 20.979-4.221a2.205 2.205 0 0 1 1.646 4.092c-7.605 3.055-15.005 4.54-22.622 4.54h-.046zm-29.408-6.991c-.293 0-.59-.059-.879-.184-8.63-3.755-16.409-8.42-23.115-13.863a2.206 2.206 0 0 1 2.778-3.424c6.399 5.191 13.833 9.647 22.099 13.243a2.204 2.204 0 0 1-.883 4.228zm74.112-10.571a2.206 2.206 0 0 1-1.283-4.001c4.432-3.165 8.828-6.537 13.484-10.107 2.494-1.915 5.025-3.855 7.602-5.796a2.204 2.204 0 1 1 2.653 3.523 999.003 999.003 0 0 0-7.572 5.772c-4.684 3.593-9.11 6.989-13.605 10.198a2.19 2.19 0 0 1-1.279.411zm246.614-4.121c-.368 0-.739-.092-1.081-.285-1.297-.731-2.58-1.45-3.857-2.161a2.206 2.206 0 0 1 2.145-3.855c1.286.715 2.578 1.44 3.879 2.176a2.205 2.205 0 0 1-1.086 4.125zm-27.282-14.485c-.327 0-.661-.073-.974-.228-8.169-4.033-16.221-7.715-23.936-10.947a2.204 2.204 0 1 1 1.706-4.068c7.798 3.266 15.933 6.988 24.181 11.061a2.204 2.204 0 0 1-.977 4.182zm-333.618-3.992a2.201 2.201 0 0 1-1.859-1.016c-4.749-7.417-8.421-15.731-10.921-24.712a2.208 2.208 0 0 1 1.536-2.716 2.214 2.214 0 0 1 2.716 1.533c2.38 8.558 5.873 16.469 10.383 23.517a2.204 2.204 0 0 1-1.855 3.394zm157.242-8.277a2.203 2.203 0 0 1-1.897-1.076 2.207 2.207 0 0 1 .767-3.024c8.167-4.871 16.079-8.663 24.188-11.595a2.205 2.205 0 1 1 1.499 4.148c-7.841 2.835-15.504 6.51-23.43 11.236a2.194 2.194 0 0 1-1.127.311zm127.544-8c-.226 0-.457-.036-.685-.11-8.694-2.836-17.208-5.134-25.299-6.828a2.206 2.206 0 0 1-1.706-2.611 2.213 2.213 0 0 1 2.61-1.707c8.249 1.727 16.915 4.067 25.764 6.953a2.208 2.208 0 0 1 1.413 2.78 2.208 2.208 0 0 1-2.097 1.523zm-78.107-9.645a2.205 2.205 0 0 1-.284-4.392c8.548-1.122 17.535-1.412 26.802-.86a2.205 2.205 0 0 1-.262 4.402c-8.991-.535-17.694-.255-25.967.832a2.36 2.36 0 0 1-.289.018zm-221.193-24.322a2.204 2.204 0 0 1-2.201-2.136 119.886 119.886 0 0 1-.063-3.882c0-13.433 2.111-22.639 2.201-23.025a2.197 2.197 0 0 1 2.647-1.646 2.205 2.205 0 0 1 1.648 2.647c-.019.089-2.085 9.134-2.085 22.024 0 1.215.019 2.465.06 3.744a2.208 2.208 0 0 1-2.136 2.273l-.071.001zM1617.928 1179.908c-50.071 0-90.66 40.473-90.66 90.399 0 12.481 5.665 29.934 14.165 49.097 21.422 48.3 60.846 107.446 72.898 125.118 1.729 2.531 5.458 2.538 7.185.007 16.83-24.673 87.069-130.278 87.069-174.222.001-49.926-40.59-90.399-90.657-90.399z"/><path style="fill:#f5f5f5" d="m1668.465 1235.638-.093-.113c-4.762-5.516-16.133 2.323-16.133 2.323l-20.535 13.119-19.708-5.536c3.308-3.909 4.591-7.987 2.852-10.107-2.252-2.745-8.716-1.166-14.438 3.527a27.124 27.124 0 0 0-2.721 2.561l-15.132-4.25-11.122 7.728 39.925 23.319-30.01 29.748-16.389-4.779-4.646 3.805 18.95 12.57 7.794 20.035 4.64-3.812-1.482-17.008 35.043-23.612 15.06 43.714 9.754-9.396-1.209-15.671a27.17 27.17 0 0 0 3.044-2.168c5.722-4.693 8.535-10.724 6.283-13.469-1.739-2.12-5.99-1.659-10.47.82l-1.574-20.41 16.882-17.573c.002.002 9.914-9.617 5.435-15.365z"/><path style="fill:#f5f5f5" d="m1659.605 1249.018.839-.901s4.939-4.926 2.603-7.742l-.047-.056c-2.334-2.814-8.068 1.271-8.068 1.271l-.964.633 5.637 6.795z"/><circle cx="1617.927" cy="1481.307" r="17.429"/><circle style="fill:#f5f5f5" cx="568.355" cy="919.789" r="31.779"/><path d="M568.356 953.773c-18.739 0-33.985-15.246-33.985-33.985 0-18.739 15.246-33.985 33.985-33.985 18.739 0 33.984 15.246 33.984 33.985-.001 18.74-15.245 33.985-33.984 33.985zm0-63.558c-16.307 0-29.574 13.266-29.574 29.574 0 16.307 13.267 29.574 29.574 29.574 16.306 0 29.573-13.266 29.573-29.574s-13.267-29.574-29.573-29.574zM1908.866 352.373a2.199 2.199 0 0 1-1.559-.645l-8.432-8.424a2.207 2.207 0 0 1 3.119-3.121l8.432 8.424a2.207 2.207 0 0 1-1.56 3.766zM1938.373 381.855a2.199 2.199 0 0 1-1.559-.645l-8.432-8.424a2.207 2.207 0 0 1 3.119-3.121l8.432 8.424a2.207 2.207 0 0 1-1.56 3.766zM1900.435 381.855a2.207 2.207 0 0 1-1.559-3.766l8.432-8.424a2.207 2.207 0 0 1 3.119 3.121l-8.432 8.424c-.432.43-.996.645-1.56.645zM1929.942 352.373a2.207 2.207 0 0 1-1.559-3.766l8.432-8.424a2.207 2.207 0 0 1 3.118 3.121l-8.432 8.424a2.2 2.2 0 0 1-1.559.645zM2048.238 590.432a2.205 2.205 0 0 1-2.205-2.204l-.006-11.918c0-1.218.986-2.205 2.203-2.206h.002c1.217 0 2.205.986 2.205 2.204l.007 11.918a2.205 2.205 0 0 1-2.203 2.206h-.003zM2048.255 632.146a2.205 2.205 0 0 1-2.205-2.204l-.004-11.918a2.205 2.205 0 1 1 4.41-.002l.004 11.918a2.206 2.206 0 0 1-2.205 2.206zM2033.345 605.324l-11.918-.005a2.206 2.206 0 0 1 0-4.41l11.918.005a2.206 2.206 0 0 1 0 4.41zM2075.059 605.341l-11.918-.005a2.206 2.206 0 0 1 0-4.41l11.918.005a2.206 2.206 0 0 1 0 4.41zM1991.004 453.836c-8.804 0-15.967-7.163-15.967-15.967s7.163-15.966 15.967-15.966 15.967 7.162 15.967 15.966c.001 8.804-7.163 15.967-15.967 15.967zm0-27.523c-6.373 0-11.557 5.184-11.557 11.556 0 6.373 5.184 11.556 11.557 11.556s11.557-5.184 11.557-11.556c0-6.372-5.184-11.556-11.557-11.556z"/></svg>