<?xml version="1.0" standalone="no"?>
<!DOCTYPE svg PUBLIC "-//W3C//DTD SVG 20010904//EN"
 "http://www.w3.org/TR/2001/REC-SVG-20010904/DTD/svg10.dtd">
<svg version="1.0" xmlns="http://www.w3.org/2000/svg"
 width="400.000000pt" height="400.000000pt" viewBox="0 0 400.000000 400.000000"
 preserveAspectRatio="xMidYMid meet">
<metadata>
Created by potrace 1.14, written by Peter Selinger 2001-2017
</metadata>
<g transform="translate(0.000000,400.000000) scale(0.100000,-0.100000)"
fill="#000000" stroke="none">
<path d="M2243 3919 c-23 -9 -29 -22 -38 -89 -3 -25 -10 -70 -15 -100 -5 -30
-12 -73 -15 -95 -6 -41 -21 -131 -30 -175 -3 -13 -7 -42 -11 -65 -3 -22 -17
-107 -30 -190 -14 -82 -27 -165 -30 -182 -5 -31 -3 -33 23 -33 15 0 101 -2
191 -3 89 -1 162 1 162 5 0 4 6 5 14 2 23 -9 226 -10 226 -1 0 5 5 5 10 2 6
-4 97 -7 202 -7 154 -1 194 2 200 13 6 11 68 387 84 504 4 35 12 81 18 110 2
11 7 40 10 65 3 25 8 56 11 70 2 14 7 41 10 60 2 19 7 51 11 72 5 36 5 36 -30
34 -20 -1 -36 2 -36 7 0 4 -6 5 -12 0 -18 -10 -88 -11 -88 0 0 4 -5 5 -12 1
-18 -12 -58 -11 -58 1 0 6 -3 7 -8 0 -9 -12 -92 -14 -92 -2 0 4 -6 5 -12 1
-17 -11 -158 -11 -158 -1 0 4 -9 3 -20 -3 -14 -8 -20 -8 -20 0 0 6 -5 8 -12 3
-18 -10 -88 -11 -88 0 0 4 -6 5 -12 1 -18 -11 -48 -12 -48 -2 0 5 -5 6 -12 2
-17 -11 -91 -11 -105 0 -8 5 -13 5 -13 -1 0 -9 -120 -10 -136 -1 -5 3 -19 2
-31 -3z"/>
<path d="M3129 2992 c-24 -3 -28 -9 -38 -60 -13 -66 -49 -271 -57 -322 -3 -19
-9 -57 -15 -85 -15 -80 -17 -91 -23 -129 -3 -20 -9 -52 -12 -72 -9 -59 -23
-131 -30 -155 -4 -14 -56 -16 -510 -15 -278 1 -510 -2 -515 -5 -8 -5 -48 -198
-64 -309 -2 -14 -11 -64 -19 -113 -9 -48 -19 -104 -22 -125 -3 -20 -7 -43 -9
-50 -3 -7 -9 -41 -15 -75 -17 -102 -20 -117 -42 -181 -33 -98 -79 -176 -126
-215 -24 -20 -48 -35 -53 -33 -5 1 -9 -3 -9 -9 0 -5 -4 -7 -10 -4 -5 3 -10 2
-10 -4 0 -5 -12 -12 -27 -15 -16 -4 -39 -9 -53 -12 -35 -9 -178 -9 -217 -1
-76 16 -131 59 -151 117 -15 41 -12 228 4 320 7 41 20 113 28 160 9 47 16 90
16 95 0 12 -82 11 -100 0 -7 -5 -11 -4 -7 1 4 7 -135 11 -153 4 -3 -1 -9 -1
-15 0 -27 6 -102 5 -117 -2 -9 -4 -19 -5 -21 -1 -4 7 -195 9 -222 3 -5 -1 -12
-1 -15 0 -15 6 -128 4 -124 -2 3 -4 -5 -4 -18 0 -24 9 -106 7 -115 -1 -2 -3
-17 -2 -33 3 -18 5 -32 4 -40 -3 -10 -9 -11 -9 -5 2 6 11 4 13 -9 8 -10 -4
-23 -7 -30 -7 -11 0 -34 -105 -51 -230 -4 -27 -21 -120 -30 -160 -3 -14 -8
-45 -11 -70 -3 -25 -10 -67 -14 -95 -11 -66 -11 -248 0 -305 4 -25 11 -58 13
-75 9 -48 38 -137 52 -159 8 -12 14 -25 15 -31 1 -17 68 -121 100 -155 16 -18
30 -36 30 -41 0 -5 4 -9 8 -9 8 0 36 -22 101 -77 14 -13 32 -23 39 -23 6 0 12
-4 12 -10 0 -5 5 -10 11 -10 6 0 24 -9 40 -21 16 -11 29 -18 29 -14 0 3 11 -2
25 -11 14 -9 25 -14 25 -11 0 3 25 -5 55 -18 30 -14 69 -27 87 -30 17 -3 34
-8 38 -10 8 -5 55 -15 95 -21 17 -2 41 -6 55 -10 25 -6 50 -9 162 -18 32 -2
63 -8 69 -12 8 -5 9 -3 4 5 -5 10 -3 11 11 4 21 -11 290 -10 300 0 4 4 13 2
21 -4 8 -7 13 -8 13 -1 0 5 12 10 28 9 33 0 137 11 172 18 14 3 36 7 50 10 14
3 41 8 60 11 19 3 38 8 43 11 4 2 17 6 30 9 50 9 63 13 92 25 17 7 33 13 38
14 4 2 8 3 10 5 1 1 9 3 18 5 8 1 41 14 72 29 31 14 60 25 63 25 4 0 10 3 13
8 3 4 26 19 51 32 70 38 168 116 245 197 87 90 97 103 182 239 49 78 129 266
158 375 1 3 7 25 14 50 14 48 50 226 57 275 2 17 6 41 9 55 8 38 74 410 81
455 3 22 10 59 15 83 5 23 12 59 15 80 3 20 9 41 14 46 9 9 893 12 908 2 15
-9 24 27 37 144 3 30 8 66 10 80 2 14 7 50 10 80 4 30 9 63 10 72 2 9 7 48 10
85 4 37 9 70 10 73 2 3 6 33 10 65 3 33 8 69 10 80 2 11 7 49 11 85 3 36 8 68
11 72 4 7 -813 16 -868 10z"/>
</g>
</svg>
